<svg width="27" height="24" viewBox="0 0 27 24" fill="none" xmlns="http://www.w3.org/2000/svg">
<path d="M0 7.11111V20.4444C0 22.4044 1.6155 24 3.6 24H23.4C25.3845 24 27 22.4044 27 20.4444V7.11111C27 5.15111 25.3845 3.55556 23.4 3.55556H18.9V1.80444C18.9 0.808889 18.081 0 17.073 0H9.927C8.919 0 8.1 0.808889 8.1 1.80444V3.55556H3.6C1.6155 3.55556 0 5.15111 0 7.11111ZM9.927 1.77778L17.1 1.80444V3.55556H9.9L9.927 1.77778ZM23.4 5.33333C24.3945 5.33333 25.2 6.12889 25.2 7.11111V20.4444C25.2 21.4267 24.3945 22.2222 23.4 22.2222H3.6C2.6055 22.2222 1.8 21.4267 1.8 20.4444V7.11111C1.8 6.12889 2.6055 5.33333 3.6 5.33333H23.4Z" fill="#D9D9D9"/>
<path d="M5.85 21.3333C6.345 21.3333 6.75 20.9333 6.75 20.4444V7.11111C6.75 6.62222 6.345 6.22222 5.85 6.22222C5.355 6.22222 4.95 6.62222 4.95 7.11111V20.4444C4.95 20.9333 5.355 21.3333 5.85 21.3333Z" fill="#D9D9D9"/>
<path d="M21.15 21.3333C21.645 21.3333 22.05 20.9333 22.05 20.4444V7.11111C22.05 6.62222 21.645 6.22222 21.15 6.22222C20.655 6.22222 20.25 6.62222 20.25 7.11111V20.4444C20.25 20.9333 20.655 21.3333 21.15 21.3333Z" fill="#D9D9D9"/>
</svg>
