<svg width="96" height="38" viewBox="0 0 96 38" fill="none" xmlns="http://www.w3.org/2000/svg">
<path d="M19.9348 35.5876C11.1441 35.5876 3.50732 27.8111 3.50732 18.8594C3.50732 9.95392 11.1441 2.17742 19.9348 2.17742C28.6803 2.17742 36.317 9.95392 36.317 18.8594C36.3284 27.8111 28.6916 35.5876 19.9348 35.5876ZM19.9348 12.5C16.5973 12.5 13.6444 15.4723 13.6444 18.871C13.6444 22.2696 16.5973 25.2765 19.9348 25.2765C23.2384 25.2765 26.1913 22.2696 26.1913 18.871C26.1913 15.4723 23.2384 12.5 19.9348 12.5Z" fill="white"/>
<path d="M52.6652 12.5V35.0115H42.5394V12.5H36.7808V2.76498H58.4578V12.5H52.6652Z" fill="white"/>
<path d="M75.3494 35.5876C66.5586 35.5876 58.9219 27.8111 58.9219 18.8594C58.9219 9.95392 66.5586 2.17742 75.3494 2.17742C84.0948 2.17742 91.7316 9.95392 91.7316 18.8594C91.7316 27.8111 84.0948 35.5876 75.3494 35.5876ZM75.3494 12.5C72.0118 12.5 69.0589 15.4723 69.0589 18.871C69.0589 22.2696 72.0118 25.2765 75.3494 25.2765C78.653 25.2765 81.6058 22.2696 81.6058 18.871C81.6058 15.4723 78.653 12.5 75.3494 12.5Z" fill="white"/>
</svg>
