<svg width="32" height="32" viewBox="0 0 32 32" fill="none" xmlns="http://www.w3.org/2000/svg">
<g clip-path="url(#clip0_400_367)">
<path d="M15.5362 31.0725C24.1167 31.0725 31.0725 24.1167 31.0725 15.5362C31.0725 6.95581 24.1167 0 15.5362 0C6.95581 0 0 6.95581 0 15.5362C0 24.1167 6.95581 31.0725 15.5362 31.0725Z" fill="white"/>
<path fill-rule="evenodd" clip-rule="evenodd" d="M7.03244 15.3723C11.5616 13.399 14.5817 12.0981 16.0928 11.4696C20.4074 9.67497 21.3039 9.36323 21.8883 9.35294C22.0168 9.35067 22.3042 9.38253 22.4903 9.53357C22.6475 9.66111 22.6907 9.83339 22.7114 9.95431C22.7321 10.0752 22.7579 10.3507 22.7374 10.5659C22.5036 13.0226 21.4919 18.9842 20.9772 21.7357C20.7594 22.8999 20.3306 23.2903 19.9155 23.3285C19.0133 23.4115 18.3281 22.7323 17.4543 22.1595C16.0869 21.2631 15.3144 20.7051 13.9871 19.8305C12.4532 18.8196 13.4476 18.2641 14.3218 17.3561C14.5505 17.1185 18.5257 13.5028 18.6027 13.1748C18.6123 13.1337 18.6212 12.9808 18.5304 12.9001C18.4395 12.8193 18.3055 12.8469 18.2087 12.8689C18.0716 12.9 15.8871 14.3439 11.6554 17.2004C11.0354 17.6261 10.4738 17.8336 9.9706 17.8227C9.41588 17.8107 8.34881 17.5091 7.55556 17.2512C6.5826 16.9349 5.80931 16.7677 5.87665 16.2306C5.91172 15.9508 6.29698 15.6647 7.03244 15.3723Z" fill="#00327F"/>
</g>
<defs>
<clipPath id="clip0_400_367">
<rect width="31.0725" height="31.0725" fill="white"/>
</clipPath>
</defs>
</svg>
