<svg width="26" height="26" viewBox="0 0 26 26" fill="none" xmlns="http://www.w3.org/2000/svg">
<path d="M1.6896 10.9395C2.51524 13.1576 3.75371 15.2253 5.55511 17.4434C7.76934 20.1127 10.4714 22.218 13.5113 23.6842C14.6747 24.2481 16.2509 24.8872 17.9773 25C18.0899 25 18.2025 25 18.2775 25C19.4409 25 20.4167 24.5865 21.1673 23.7594C21.1673 23.7594 21.1673 23.7594 21.2048 23.7218C21.4675 23.3834 21.7677 23.1203 22.1055 22.7819C22.3307 22.5563 22.5559 22.3684 22.781 22.1428C23.7943 21.0901 23.7943 19.7743 22.781 18.7593L19.9663 15.9396C19.4785 15.4509 18.9155 15.1877 18.3151 15.1877C17.7146 15.1877 17.1141 15.4509 16.6262 15.9396L14.975 17.5938C14.8248 17.5186 14.6747 17.4434 14.5246 17.3682C14.337 17.2931 14.1493 17.1803 13.9992 17.1051C12.498 16.1276 11.1094 14.887 9.79592 13.2704C9.12039 12.4433 8.70757 11.729 8.36981 11.0147C8.78263 10.6388 9.19545 10.2252 9.60827 9.81168C9.75839 9.6613 9.90851 9.51092 10.0586 9.36054C11.1094 8.30789 11.1094 6.99207 10.0586 5.93941L8.67004 4.5484C8.51992 4.39802 8.36981 4.21005 8.18216 4.05967C7.88193 3.75891 7.54416 3.42056 7.24393 3.1198C6.75605 2.63107 6.19311 2.3679 5.59264 2.3679C4.99217 2.3679 4.42923 2.63107 3.90383 3.1198L2.10242 4.88676C1.46442 5.52587 1.08913 6.31536 1.01407 7.21764C0.939015 8.30789 1.16419 9.51092 1.6896 10.9395ZM2.25254 7.29283C2.29007 6.69131 2.55277 6.16498 2.96559 5.71384L4.69194 3.98448C4.95464 3.72132 5.25488 3.60853 5.51758 3.60853C5.78029 3.60853 6.08052 3.75891 6.34323 4.02208C6.64346 4.32284 6.9437 4.62359 7.28146 4.92435C7.43158 5.07473 7.61922 5.26271 7.76934 5.41308L9.15792 6.80409C9.72086 7.36802 9.72086 7.93194 9.15792 8.49586C9.0078 8.64624 8.85769 8.79662 8.70757 8.947C8.29475 9.39814 7.88193 9.81168 7.43158 10.1876C7.43158 10.1876 7.43157 10.1876 7.39405 10.2252C6.98122 10.6388 7.05628 11.0147 7.16887 11.2779V11.3155C7.54416 12.1802 8.03204 13.0072 8.82016 13.9847C10.2087 15.7141 11.7099 17.0675 13.3237 18.0825C13.5113 18.1953 13.7365 18.3081 13.9617 18.4209C14.1493 18.4961 14.337 18.6089 14.4871 18.6841L14.5246 18.7217C14.6747 18.7968 14.8248 18.8344 14.975 18.8344C15.3502 18.8344 15.613 18.5713 15.688 18.4961L17.4144 16.7667C17.6771 16.5036 17.9773 16.3532 18.24 16.3532C18.5778 16.3532 18.878 16.5788 19.0281 16.7667L21.8428 19.5863C22.5183 20.2631 22.2181 20.9022 21.8428 21.3157C21.6552 21.5413 21.43 21.7292 21.2048 21.9172C20.867 22.218 20.5293 22.5563 20.2291 22.9323C19.7036 23.4962 19.0656 23.7594 18.24 23.7594C18.1649 23.7594 18.0899 23.7594 18.0148 23.7594C16.4761 23.6466 15.05 23.0451 13.9992 22.5563C11.1094 21.1653 8.55745 19.1728 6.45581 16.6163C4.72947 14.511 3.56606 12.5561 2.77795 10.4884C2.3276 9.24776 2.13995 8.27029 2.25254 7.29283ZM13.4738 5.90182C13.5113 5.56347 13.8491 5.3379 14.1868 5.41308C15.8006 5.67625 17.2267 6.42815 18.3901 7.59359C19.5535 8.75903 20.3041 10.2252 20.5668 11.8042C20.6043 12.1426 20.4167 12.4433 20.0789 12.5185C20.0414 12.5185 20.0039 12.5185 19.9663 12.5185C19.6661 12.5185 19.4409 12.2929 19.3659 12.0298C19.1407 10.6764 18.5027 9.43573 17.5269 8.45827C16.5512 7.4808 15.3127 6.84169 13.9617 6.61612C13.6614 6.54093 13.4363 6.20258 13.4738 5.90182ZM23.7568 11.8042C23.344 9.39814 22.2181 7.21764 20.4918 5.48828C18.7654 3.75891 16.5887 2.63107 14.1868 2.21752C13.8491 2.17993 13.6239 1.84157 13.699 1.50322C13.7365 1.16487 14.0743 0.939299 14.412 1.01449C17.0391 1.46563 19.4785 2.70626 21.3925 4.62359C23.3064 6.54093 24.5449 8.947 24.9953 11.6162C25.0328 11.9546 24.8451 12.2553 24.5074 12.3305C24.4699 12.3305 24.4323 12.3305 24.3948 12.3305C24.057 12.2929 23.7943 12.105 23.7568 11.8042Z" fill="#D9D9D9" stroke="#D9D9D9" stroke-width="0.5"/>
</svg>
