<svg width="20" height="20" viewBox="0 0 20 20" fill="none" xmlns="http://www.w3.org/2000/svg">
<path d="M13.64 7.9685L11.7834 7.81102L11.0833 6.01575C10.9312 5.6378 10.5964 5.41732 10.2007 5.41732C9.80501 5.41732 9.47021 5.66929 9.31802 6.01575L8.61798 7.81102L6.76136 7.93701C6.36568 7.9685 6.06132 8.22047 5.93957 8.59843C5.81782 8.97638 5.93957 9.38583 6.2135 9.6378L7.64402 10.8661L7.18747 12.7244C7.12659 13.0079 7.18747 13.3228 7.37009 13.5433C7.55271 13.7638 7.82663 13.9213 8.10056 13.9213C8.28318 13.9213 8.43537 13.8583 8.58755 13.7638L10.1702 12.7559L11.7529 13.7638C11.9051 13.8583 12.0877 13.9213 12.2399 13.9213C12.5139 13.9213 12.8182 13.7953 12.9704 13.5433C13.153 13.3228 13.2139 13.0079 13.153 12.7244L12.6965 10.8661L14.127 9.6378C14.4314 9.38583 14.5227 8.97638 14.4009 8.59843C14.3401 8.25197 14.0052 8 13.64 7.9685ZM11.9051 10.3622C11.7529 10.4882 11.6921 10.6772 11.7529 10.8661L12.2399 12.9764L10.4746 11.8425C10.3224 11.748 10.1094 11.748 9.95719 11.8425L8.19187 12.9764L8.67886 10.8661C8.70929 10.6772 8.64842 10.4882 8.52667 10.3622L6.94398 8.97638L9.01366 8.8189C9.19628 8.8189 9.34846 8.69291 9.43977 8.50394L10.2311 6.48819L11.0225 8.50394C11.0833 8.69291 11.266 8.7874 11.4486 8.8189L13.5183 8.97638L11.9051 10.3622ZM18.3577 13.5748L18.8751 13.2913C19.2708 13.0709 19.5751 12.6614 19.6664 12.189C19.7578 11.7165 19.6664 11.2441 19.3925 10.8346L19.0273 10.3307C18.8751 10.1102 18.8751 9.79528 19.0273 9.54331L19.3621 9.03937C19.636 8.66142 19.7273 8.15748 19.6056 7.68504C19.5143 7.2126 19.2099 6.83465 18.7838 6.58268L18.2664 6.29921C18.0229 6.17323 17.9011 5.88976 17.9316 5.6063L18.0229 5.00787C18.1142 4.53543 17.962 4.06299 17.6881 3.68504C17.3837 3.30709 16.9576 3.08661 16.501 3.05512L15.9228 3.02362C15.6488 3.02362 15.4053 2.80315 15.3445 2.55118L15.1923 1.98425C14.9792 1.25984 14.3401 0.787402 13.64 0.787402C13.427 0.787402 13.2139 0.818898 13.0008 0.913386L12.453 1.16535C12.2095 1.29134 11.9051 1.19685 11.7225 1.00787L11.3573 0.566929C11.0529 0.220472 10.6268 0 10.1398 0C9.68326 0 9.22672 0.220472 8.92235 0.566929L8.52667 1.03937C8.34406 1.25984 8.03969 1.32283 7.7962 1.22835L7.24834 1.00787C7.06572 0.913386 6.85267 0.88189 6.63961 0.88189C5.90913 0.88189 5.26997 1.38583 5.08735 2.11024L4.93517 2.70866C4.87429 2.99213 4.6308 3.1811 4.35687 3.2126L3.77858 3.24409C3.32203 3.27559 2.89592 3.49606 2.59155 3.87402C2.31762 4.25197 2.19588 4.72441 2.28719 5.19685L2.3785 5.79528C2.43937 6.07874 2.28719 6.36221 2.0437 6.48819L1.52627 6.77165C1.1306 6.99213 0.826234 7.40158 0.734925 7.87402C0.643615 8.34646 0.734925 8.8189 1.00885 9.22835L1.37409 9.70079C1.52627 9.92126 1.52627 10.2362 1.37409 10.4882L1.03929 10.9606C0.765361 11.3386 0.674052 11.8425 0.795798 12.315C0.917544 12.7874 1.19147 13.1654 1.61758 13.4173L2.135 13.7008C2.3785 13.8268 2.50024 14.1102 2.46981 14.3937L2.3785 14.9921C2.28719 15.4646 2.43937 15.937 2.7133 16.315C3.01766 16.6929 3.44378 16.9134 3.90032 16.9449L4.47862 16.9764C4.75255 16.9764 4.99604 17.1969 5.05691 17.4488L5.20909 18.0157C5.42215 18.7402 6.06132 19.2126 6.76136 19.2126C6.97441 19.2126 7.18747 19.1811 7.40052 19.0866L7.94838 18.8346C8.19187 18.7087 8.49624 18.8032 8.67886 18.9921L9.07453 19.4331C9.3789 19.7795 9.80501 20 10.292 20C10.7485 20 11.2051 19.7795 11.5095 19.4331L11.9051 18.9606C12.0877 18.7402 12.3921 18.6772 12.6356 18.7717L13.1835 18.9921C13.3661 19.0866 13.5791 19.1181 13.7922 19.1181C14.5227 19.1181 15.1618 18.6142 15.3445 17.8898L15.4966 17.2913C15.5575 17.0079 15.801 16.8189 16.0749 16.7874L16.6532 16.7559C17.1098 16.7244 17.5359 16.5039 17.8403 16.126C18.1142 15.748 18.2359 15.2756 18.1446 14.8032L18.0533 14.2047C17.9924 13.9843 18.1142 13.7008 18.3577 13.5748ZM17.8707 12.6929C17.262 13.0394 16.9272 13.7638 17.0793 14.4567L17.1706 15.0551C17.2011 15.2441 17.1706 15.4331 17.0489 15.5906C16.9272 15.748 16.775 15.8425 16.5924 15.8425L15.9836 15.874C15.2836 15.9055 14.7053 16.4095 14.5227 17.1024L14.3705 17.7008C14.2792 17.9843 14.0357 18.2047 13.7618 18.2047C13.6704 18.2047 13.6096 18.1732 13.5183 18.1417L12.9704 17.8898C12.7878 17.7953 12.5747 17.7638 12.3617 17.7638C11.9051 17.7638 11.4486 17.9843 11.1442 18.3307L10.7485 18.8032C10.6268 18.9606 10.4442 19.0236 10.2616 19.0236C10.0789 19.0236 9.89632 18.9291 9.77457 18.8032L9.3789 18.3622C9.07453 18.0157 8.64842 17.7953 8.16144 17.7953C7.94838 17.7953 7.73533 17.8268 7.52227 17.9213L6.97441 18.1732C6.8831 18.2047 6.82223 18.2362 6.73092 18.2362C6.45699 18.2362 6.18306 18.0472 6.12219 17.7638L5.97001 17.1969C5.78739 16.5039 5.17866 16.0315 4.47862 16L3.90032 15.9685C3.7177 15.9685 3.53509 15.874 3.41334 15.7165C3.29159 15.5591 3.26116 15.3701 3.29159 15.1811L3.3829 14.5827C3.50465 13.8583 3.16985 13.1654 2.56112 12.8189L2.0437 12.5354C1.89151 12.4409 1.76977 12.2835 1.70889 12.0945C1.67846 11.9055 1.70889 11.7165 1.8002 11.5591L2.135 11.0551C2.53068 10.4567 2.53068 9.66929 2.135 9.10236L1.8002 8.59843C1.67846 8.44095 1.64802 8.25197 1.67846 8.06299C1.70889 7.87402 1.83064 7.71654 1.98282 7.62205L2.50024 7.33858C3.10897 6.99213 3.44378 6.26772 3.29159 5.5748L3.23072 4.97638C3.20028 4.7874 3.23072 4.59842 3.35247 4.44094C3.47421 4.28346 3.62639 4.18898 3.80901 4.18898L4.38731 4.15748C5.08735 4.12598 5.66564 3.62205 5.84826 2.92913L6.00044 2.33071C6.09175 2.04724 6.33525 1.82677 6.60917 1.82677C6.70048 1.82677 6.76136 1.85827 6.85267 1.88976L7.40052 2.11024C7.58314 2.20472 7.7962 2.23622 8.00925 2.23622C8.4658 2.23622 8.92235 2.01575 9.22672 1.66929L9.62239 1.19685C9.74414 1.03937 9.92675 0.976378 10.1094 0.976378C10.292 0.976378 10.4746 1.07087 10.5964 1.19685L10.992 1.6378C11.2964 1.98425 11.7225 2.20472 12.2095 2.20472C12.4226 2.20472 12.6356 2.17323 12.8487 2.07874L13.3965 1.82677C13.4878 1.79528 13.5487 1.76378 13.64 1.76378C13.9139 1.76378 14.1879 1.95276 14.2487 2.23622L14.4009 2.80315C14.5835 3.49606 15.1923 3.9685 15.8923 4L16.4706 4.0315C16.6532 4.0315 16.8358 4.12598 16.9576 4.28346C17.0793 4.44094 17.1098 4.62992 17.0793 4.8189L16.988 5.41732C16.8663 6.14173 17.2011 6.83465 17.8098 7.1811L18.3272 7.46457C18.4794 7.55906 18.6012 7.71654 18.662 7.90551C18.6925 8.09449 18.662 8.28347 18.5707 8.44095L18.2359 8.94488C17.8403 9.54331 17.8403 10.3307 18.2359 10.8976L18.5707 11.4016C18.6925 11.5591 18.7229 11.748 18.6925 11.937C18.662 12.126 18.5403 12.2835 18.3881 12.378L17.8707 12.6929Z" fill="#3076BD"/>
</svg>
