<svg width="28" height="26" viewBox="0 0 28 26" fill="none" xmlns="http://www.w3.org/2000/svg">
<path d="M7.47586 26C8.7659 26 9.81168 24.9087 9.81168 23.5625C9.81168 22.2163 8.7659 21.125 7.47586 21.125C6.18582 21.125 5.14003 22.2163 5.14003 23.5625C5.14003 24.9087 6.18582 26 7.47586 26Z" fill="#3076BD"/>
<path d="M19.9958 26C21.2858 26 22.3316 24.9087 22.3316 23.5625C22.3316 22.2163 21.2858 21.125 19.9958 21.125C18.7057 21.125 17.66 22.2163 17.66 23.5625C17.66 24.9087 18.7057 26 19.9958 26Z" fill="#3076BD"/>
<path d="M1.27809 23.5625H3.89422C3.95651 23.5625 4.01879 23.4975 4.01879 23.4325C4.08108 21.515 5.60716 19.955 7.47582 19.955C9.34447 19.955 10.8705 21.4825 10.9328 23.4325C10.9328 23.4975 10.9951 23.5625 11.0574 23.5625H16.4142C16.4765 23.5625 16.5388 23.4975 16.5388 23.4325C16.6011 21.515 18.1272 19.955 19.9958 19.955C21.8645 19.955 23.3906 21.4825 23.4529 23.4325C23.4529 23.4975 23.5151 23.5625 23.5774 23.5625H25.851C26.5673 23.5625 27.159 22.945 27.159 22.1975V19.5325C27.159 17.8425 25.851 16.4775 24.2315 16.4775H22.2071V16.445L17.5354 11.2125C17.0371 10.6275 16.3519 10.27 15.6045 10.27H7.78726C6.69721 10.27 5.73173 10.985 5.38914 12.0575L3.83193 16.3475C3.80078 16.4125 3.76964 16.445 3.70735 16.445H2.67959C1.18466 16.445 0.00117582 17.7125 0.00117582 19.24V22.165C-0.0299685 22.945 0.561774 23.5625 1.27809 23.5625ZM12.4278 12.7725C12.4278 12.5775 12.5835 12.4475 12.7392 12.4475H15.9159C16.0094 12.4475 16.1028 12.48 16.1651 12.5775L18.5632 15.535C18.7189 15.7625 18.5943 16.055 18.314 16.055H12.7392C12.5523 16.055 12.4278 15.8925 12.4278 15.73V12.7725ZM6.16775 15.73L7.13323 12.675C7.16437 12.545 7.28895 12.4475 7.41353 12.4475H10.5591C10.7148 12.4475 10.8394 12.5775 10.8394 12.74V15.795C10.8394 15.9575 10.7148 16.0875 10.5591 16.0875H6.41691C6.26119 16.0875 6.10546 15.8925 6.16775 15.73Z" fill="#3076BD"/>
<path d="M24.4495 2.92502C24.3873 2.86002 24.325 2.79502 24.2315 2.76252C24.1381 2.73002 24.0758 2.69752 23.9824 2.69752H23.0481C22.9858 2.69752 22.9235 2.76252 22.9235 2.82752V4.22502C22.9235 4.29002 22.9858 4.35502 23.0481 4.35502H24.0135C24.1692 4.35502 24.325 4.29002 24.4495 4.12752C24.5741 3.99752 24.6364 3.77002 24.6364 3.54252C24.6364 3.41252 24.6053 3.31502 24.5741 3.18502C24.543 3.08752 24.5118 2.99002 24.4495 2.92502Z" fill="#3076BD"/>
<path d="M26.9411 0H20.7122C20.1205 0 19.6533 0.4875 19.6533 1.105V7.605C19.6533 8.2225 20.1205 8.71 20.7122 8.71H23.2038V15.47H24.4184V8.7425H26.9411C27.5328 8.7425 28 8.255 28 7.6375V1.1375C28 0.4875 27.5328 0 26.9411 0ZM25.4773 4.1275C25.415 4.3225 25.2904 4.5175 25.1659 4.6475C25.0413 4.81 24.8856 4.94 24.6987 5.0375C24.5118 5.135 24.325 5.1675 24.0758 5.1675H23.0481C22.9858 5.1675 22.9235 5.2325 22.9235 5.2975V6.7275C22.9235 6.7925 22.8612 6.8575 22.7989 6.8575H22.1137C22.0514 6.8575 21.9891 6.7925 21.9891 6.7275V1.9825C21.9891 1.9175 22.0514 1.8525 22.1137 1.8525H24.0447C24.2627 1.8525 24.4807 1.885 24.6676 1.9825C24.8544 2.08 25.0101 2.21 25.1659 2.3725C25.2904 2.535 25.415 2.6975 25.4773 2.925C25.5396 3.12 25.6019 3.315 25.6019 3.5425C25.6019 3.7375 25.5707 3.9325 25.4773 4.1275Z" fill="#3076BD"/>
</svg>
