<svg width="23" height="21" viewBox="0 0 23 21" fill="none" xmlns="http://www.w3.org/2000/svg">
<path d="M10.9504 18.0833C14.6264 18.0833 17.617 15.0927 17.617 11.4167C17.617 7.74067 14.6264 4.75 10.9504 4.75C7.27436 4.75 4.28369 7.74067 4.28369 11.4167C4.28369 15.0927 7.27436 18.0833 10.9504 18.0833ZM10.9504 5.58333C14.1669 5.58333 16.7837 8.20017 16.7837 11.4167C16.7837 14.6332 14.1669 17.25 10.9504 17.25C7.73386 17.25 5.11702 14.6332 5.11702 11.4167C5.11702 8.20017 7.73386 5.58333 10.9504 5.58333Z" fill="#3076BD"/>
<path d="M10.9508 15.9092C13.4281 15.9092 15.4435 13.8937 15.4435 11.4165C15.4435 8.93912 13.4281 6.92371 10.9508 6.92371C8.47347 6.92371 6.45801 8.93916 6.45801 11.4165C6.45801 13.8937 8.47347 15.9092 10.9508 15.9092ZM10.9508 7.75704C12.9686 7.75704 14.6102 9.39862 14.6102 11.4165C14.6102 13.4343 12.9686 15.0759 10.9508 15.0759C8.93292 15.0759 7.29134 13.4343 7.29134 11.4165C7.29134 9.39862 8.93292 7.75704 10.9508 7.75704Z" fill="#3076BD"/>
<path d="M20.534 20.1667H19.284V6.77708C20.246 6.51388 20.9507 5.35179 20.9507 3.91667C20.9507 2.28117 20.0356 1 18.8674 1C17.6991 1 16.784 2.28117 16.784 3.91667C16.784 5.35183 17.4887 6.51388 18.4507 6.77708V20.1667H3.45068V6.41667H4.70068C4.93081 6.41667 5.11735 6.23012 5.11735 6V1.41667C5.11735 1.18654 4.93081 1 4.70068 1C4.4706 1 4.28402 1.18654 4.28402 1.41667V5.58333H3.45068V1.41667C3.45068 1.18654 3.26414 1 3.03402 1C2.80393 1 2.61735 1.18654 2.61735 1.41667V5.58333H1.78402V1.41667C1.78402 1.18654 1.59748 1 1.36735 1C1.13727 1 0.950684 1.18654 0.950684 1.41667V6C0.950684 6.23012 1.13727 6.41667 1.36735 6.41667H2.61735V20.1667H1.36735C1.13727 20.1667 0.950684 20.3533 0.950684 20.5833C0.950684 20.8134 1.13727 21 1.36735 21H20.534C20.7641 21 20.9507 20.8134 20.9507 20.5833C20.9507 20.3533 20.7641 20.1667 20.534 20.1667ZM17.6174 3.91667C17.6174 2.78737 18.1898 1.83333 18.8674 1.83333C19.5449 1.83333 20.1174 2.78737 20.1174 3.91667C20.1174 5.04596 19.5449 6 18.8674 6C18.1898 6 17.6174 5.04596 17.6174 3.91667Z" fill="#3076BD"/>
<path d="M21.4504 1L0.950618 20.5757" stroke="#3076BD" stroke-width="0.75" stroke-linecap="round"/>
</svg>
