<svg width="96" height="38" viewBox="0 0 96 38" fill="none" xmlns="http://www.w3.org/2000/svg">
<path d="M19.9348 35.6557C11.1441 35.6557 3.50732 27.8792 3.50732 18.9276C3.50732 10.0221 11.1441 2.24561 19.9348 2.24561C28.6803 2.24561 36.317 10.0221 36.317 18.9276C36.3284 27.8792 28.6916 35.6557 19.9348 35.6557ZM19.9348 12.5682C16.5973 12.5682 13.6444 15.5405 13.6444 18.9392C13.6444 22.3378 16.5973 25.3447 19.9348 25.3447C23.2384 25.3447 26.1913 22.3378 26.1913 18.9392C26.1913 15.5405 23.2384 12.5682 19.9348 12.5682Z" fill="white"/>
<path d="M52.6652 12.5682V35.0797H42.5394V12.5682H36.7808V2.83316H58.4578V12.5682H52.6652Z" fill="white"/>
<path d="M75.3494 35.6557C66.5586 35.6557 58.9219 27.8792 58.9219 18.9276C58.9219 10.0221 66.5586 2.24561 75.3494 2.24561C84.0948 2.24561 91.7316 10.0221 91.7316 18.9276C91.7316 27.8792 84.0948 35.6557 75.3494 35.6557ZM75.3494 12.5682C72.0118 12.5682 69.0589 15.5405 69.0589 18.9392C69.0589 22.3378 72.0118 25.3447 75.3494 25.3447C78.653 25.3447 81.6058 22.3378 81.6058 18.9392C81.6058 15.5405 78.653 12.5682 75.3494 12.5682Z" fill="white"/>
</svg>
