<svg width="127" height="50" viewBox="0 0 127 50" fill="none" xmlns="http://www.w3.org/2000/svg">
<rect width="127" height="50" fill="white"/>
<path d="M26.5796 47.4502C14.8586 47.4502 4.67627 37.0815 4.67627 25.146C4.67627 13.272 14.8586 2.90332 26.5796 2.90332C38.2402 2.90332 48.4226 13.272 48.4226 25.146C48.4376 37.0815 38.2553 47.4502 26.5796 47.4502ZM26.5796 16.6668C22.1295 16.6668 18.1924 20.6299 18.1924 25.1614C18.1924 29.6929 22.1295 33.7021 26.5796 33.7021C30.9844 33.7021 34.9215 29.6929 34.9215 25.1614C34.9215 20.6299 30.9844 16.6668 26.5796 16.6668Z" fill="#00327F"/>
<path d="M70.2203 16.6668V46.6822H56.7192V16.6668H49.041V3.68677H77.9437V16.6668H70.2203Z" fill="#00327F"/>
<path d="M100.465 47.4502C88.7443 47.4502 78.562 37.0815 78.562 25.146C78.562 13.272 88.7443 2.90332 100.465 2.90332C112.126 2.90332 122.308 13.272 122.308 25.146C122.308 37.0815 112.126 47.4502 100.465 47.4502ZM100.465 16.6668C96.0153 16.6668 92.0781 20.6299 92.0781 25.1614C92.0781 29.6929 96.0153 33.7021 100.465 33.7021C104.87 33.7021 108.807 29.6929 108.807 25.1614C108.807 20.6299 104.87 16.6668 100.465 16.6668Z" fill="#00327F"/>
</svg>
