<svg width="18" height="19" viewBox="0 0 18 19" fill="none" xmlns="http://www.w3.org/2000/svg">
<path d="M17.6972 13.7135C17.7269 10.5654 17.7566 4.03152 9.13951 3.73453V0.467597C9.13951 0.2894 9.02066 0.111204 8.87209 0.0518057C8.6938 -0.0372924 8.51552 -0.00759337 8.36695 0.111204L0.878969 6.28867C0.760112 6.37777 0.700684 6.52627 0.700684 6.64507C0.700684 6.79356 0.760112 6.91236 0.878969 7.00146L8.36695 13.2086C8.51552 13.3274 8.6938 13.3571 8.87209 13.268C9.05037 13.1789 9.13951 13.0304 9.13951 12.8522V9.615C12.1704 9.615 14.2504 9.8526 16.8058 14.3075C16.8949 14.456 17.0435 14.5451 17.2218 14.5451C17.2515 14.5451 17.3109 14.5451 17.3406 14.5154C17.5486 14.456 17.6972 14.2778 17.6972 14.0699V13.7135ZM8.66409 8.66462C8.54523 8.66462 8.42637 8.72402 8.33723 8.81312C8.24809 8.90222 8.18866 9.02101 8.18866 9.13981V11.8425L1.91897 6.64507L8.18866 1.47737V4.18002C8.18866 4.44731 8.39666 4.65521 8.66409 4.65521C12.2298 4.68491 14.5475 5.78378 15.7361 7.98154C16.4789 9.37741 16.6572 11.0109 16.7166 12.377C14.2801 8.87252 11.9921 8.66462 8.66409 8.66462ZM1.74068 9.7635V18.0496H16.7463V16.4459C16.7463 16.1786 16.9543 15.9707 17.2218 15.9707C17.4892 15.9707 17.6972 16.1786 17.6972 16.4459V18.5248C17.6972 18.7921 17.4892 19 17.2218 19H1.26525C0.997825 19 0.789827 18.7921 0.789827 18.5248V9.7635C0.789827 9.4962 0.997825 9.28831 1.26525 9.28831C1.53268 9.28831 1.74068 9.4962 1.74068 9.7635Z" fill="#3076BD"/>
</svg>
