<svg width="16" height="14" viewBox="0 0 16 14" fill="none" xmlns="http://www.w3.org/2000/svg">
<path d="M7.6615 0.360977C7.81702 -0.0870984 8.4507 -0.0870994 8.60622 0.360976L10.0317 4.4682C10.1016 4.66938 10.2911 4.80426 10.5041 4.80426H15.0433C15.5356 4.80426 15.7316 5.44081 15.3245 5.71769L11.7102 8.17603C11.5233 8.30315 11.4449 8.53986 11.519 8.7534L12.9127 12.769C13.0706 13.2239 12.5573 13.6172 12.1592 13.3464L8.41506 10.7998C8.24536 10.6844 8.02236 10.6844 7.85266 10.7998L4.10856 13.3464C3.7104 13.6172 3.19711 13.2239 3.355 12.769L4.74871 8.7534C4.82283 8.53986 4.74446 8.30315 4.55756 8.17603L0.94324 5.71769C0.53617 5.44081 0.732134 4.80426 1.22444 4.80426H5.76364C5.97659 4.80426 6.16617 4.66938 6.23599 4.4682L7.6615 0.360977Z" fill="#00327F"/>
</svg>
