<svg width="26" height="16" viewBox="0 0 26 16" fill="none" xmlns="http://www.w3.org/2000/svg">
<path fill-rule="evenodd" clip-rule="evenodd" d="M4.36572 0C2.15658 0 0.365723 1.79086 0.365723 4V11.7951C0.365723 14.0043 2.15659 15.7951 4.36573 15.7951H21.6345C23.8437 15.7951 25.6345 14.0043 25.6345 11.7951V4C25.6345 1.79086 23.8437 0 21.6345 0H4.36572ZM14.0003 2.96149V1.96149H12.0003V2.96149V5.48771L10.248 3.67646L9.55266 2.95776L8.11525 4.34838L8.81056 5.06709L10.5814 6.89748H8.14087H7.14087V8.89748H8.14087H10.5715L8.81057 10.7176L8.11526 11.4364L9.55267 12.827L10.248 12.1083L12.0003 10.297V12.8335V13.8335H14.0003V12.8335V10.4314L15.6225 12.1083L16.3179 12.827L17.7553 11.4364L17.06 10.7176L15.299 8.89748H17.8596H18.8596V6.89748H17.8596H15.2892L17.06 5.06709L17.7553 4.34838L16.3179 2.95776L15.6225 3.67646L14.0003 5.35334V2.96149Z" fill="#3076BD"/>
</svg>
