<svg width="23" height="22" viewBox="0 0 23 22" fill="none" xmlns="http://www.w3.org/2000/svg">
<path d="M20.0558 12.4908C19.1358 12.8304 18.037 12.9871 16.8103 12.9871C16.7592 12.9871 16.6826 12.9871 16.6059 12.9871C16.5037 13.2222 16.3504 13.4574 16.197 13.6663C16.0437 13.8492 15.8904 14.0321 15.7115 14.215C15.1748 14.7897 14.5104 15.3644 14.1271 16.122C13.7438 16.9058 13.5904 17.794 13.6671 18.6822C13.7438 19.5704 14.0249 20.4064 14.4082 21.1901C14.766 21.9216 15.5326 22 15.7882 22H16.2992C17.1681 22 17.9603 21.4514 18.2925 20.6154C19.0336 18.6822 19.3658 15.2338 20.2347 12.6997C20.2858 12.543 20.1836 12.4385 20.0558 12.4908Z" fill="#3076BD"/>
<path d="M5.69393 8.57213C11.776 11.2629 15.9159 11.8899 15.9159 11.8899C22.4069 12.2818 23.0713 8.18027 22.9946 5.9597C23.0713 3.73914 22.4069 -0.388502 15.9159 0.0294868C15.9159 0.0294868 11.776 0.65647 5.69393 3.34727C5.5406 3.42565 5.41283 3.58239 5.41283 3.76526V8.15415C5.41283 8.31089 5.51505 8.49376 5.69393 8.57213ZM17.1425 2.95541C18.5225 2.95541 19.6469 4.10488 19.6469 5.51559C19.6469 6.9263 18.5225 8.07577 17.1425 8.07577C15.7626 8.07577 14.6382 6.9263 14.6382 5.51559C14.6382 4.10488 15.737 2.95541 17.1425 2.95541Z" fill="#3076BD"/>
<path d="M0.506279 4.18325C0.582943 4.2355 0.685163 4.2355 0.736273 4.15713C0.812938 4.05263 0.915157 3.92201 1.01738 3.89588C1.17071 3.81751 1.37515 3.86976 1.60514 3.97426C1.6818 4.02651 1.75847 4.07875 1.86069 4.131C1.96291 4.20938 2.03957 4.26162 2.14179 4.31387C2.39734 4.47062 2.62734 4.54899 2.85733 4.54899C2.90844 4.54899 2.98511 4.54899 3.03622 4.52287C3.29176 4.47062 3.52176 4.34 3.70064 4.131C3.80286 4.00038 3.87953 3.86976 3.95619 3.71301C3.98175 3.63464 3.93064 3.53014 3.85397 3.4779C3.77731 3.45177 3.67509 3.42565 3.59842 3.39952C3.52176 3.3734 3.44509 3.34727 3.39398 3.32115C3.34287 3.29503 3.31732 3.29503 3.26621 3.2689C3.24065 3.2689 3.24066 3.2689 3.2151 3.2689C3.18955 3.2689 3.18955 3.29503 3.16399 3.29503C3.13844 3.32115 3.13844 3.34727 3.13844 3.3734C3.13844 3.39952 3.11288 3.42565 3.11288 3.42565C3.08733 3.45177 3.06177 3.50402 3.03622 3.53014C2.98511 3.58239 2.934 3.63464 2.88289 3.63464C2.80622 3.66077 2.704 3.60852 2.57623 3.53014C2.49956 3.4779 2.4229 3.42565 2.34623 3.3734C2.24401 3.29503 2.14179 3.21665 2.03957 3.1644C1.57959 2.90316 1.06849 2.85091 0.659608 3.05991C0.378504 3.19053 0.199619 3.39952 0.0462899 3.60852C-0.0303749 3.68689 -0.0048199 3.79139 0.0718449 3.84364L0.506279 4.18325Z" fill="#3076BD"/>
<path d="M0.506278 6.40382C0.582942 6.45607 0.685162 6.45607 0.736272 6.37769C0.812937 6.2732 0.915156 6.14257 1.01738 6.11645C1.17071 6.03808 1.37515 6.09033 1.60514 6.19482C1.6818 6.24707 1.75847 6.29932 1.86069 6.35157C1.96291 6.42994 2.03957 6.48219 2.14179 6.53444C2.39734 6.69119 2.62734 6.76956 2.85733 6.76956C2.90844 6.76956 2.98511 6.76956 3.03621 6.74343C3.29176 6.69119 3.52176 6.56056 3.70064 6.35157C3.80286 6.22095 3.87953 6.09033 3.95619 5.93358C3.98175 5.85521 3.93064 5.75071 3.85397 5.69846C3.77731 5.67234 3.67509 5.64621 3.59842 5.62009C3.52176 5.59396 3.44509 5.56784 3.39398 5.54172C3.34287 5.51559 3.31732 5.51559 3.26621 5.48947C3.24065 5.48947 3.24065 5.48947 3.2151 5.48947C3.18954 5.48947 3.18954 5.51559 3.16399 5.51559C3.13843 5.54172 3.13843 5.56784 3.13843 5.59396C3.13843 5.62009 3.11288 5.64621 3.11288 5.64621C3.08732 5.67234 3.06177 5.72459 3.03621 5.75071C2.98511 5.80296 2.934 5.85521 2.88289 5.85521C2.80622 5.88133 2.704 5.82908 2.57623 5.75071C2.49956 5.69846 2.4229 5.64621 2.34623 5.59396C2.24401 5.51559 2.14179 5.43722 2.03957 5.38497C1.57958 5.12373 1.06849 5.07148 0.659607 5.28047C0.378503 5.41109 0.199619 5.62009 0.0462891 5.82908C-0.00482079 5.90746 -0.0048207 6.01195 0.0718441 6.0642L0.506278 6.40382Z" fill="#3076BD"/>
<path d="M0.506278 8.62438C0.582942 8.67663 0.685162 8.67663 0.736272 8.59826C0.812937 8.49376 0.915156 8.36314 1.01738 8.33702C1.17071 8.25864 1.37515 8.31089 1.60514 8.41539C1.6818 8.46764 1.75847 8.51989 1.86069 8.57214C1.96291 8.65051 2.03957 8.70276 2.14179 8.75501C2.39734 8.91175 2.62734 8.99012 2.85733 8.99012C2.90844 8.99012 2.98511 8.99012 3.03621 8.964C3.29176 8.91175 3.52176 8.78113 3.70064 8.57214C3.80286 8.44151 3.87953 8.31089 3.95619 8.15415C3.98175 8.07577 3.93064 7.97128 3.85397 7.91903C3.77731 7.8929 3.67509 7.86678 3.59842 7.84066C3.52176 7.81453 3.44509 7.78841 3.39398 7.76228C3.34287 7.73616 3.31732 7.73616 3.26621 7.71003C3.24065 7.71003 3.24065 7.71003 3.2151 7.71003C3.18954 7.71003 3.18954 7.73616 3.16399 7.73616C3.13843 7.76228 3.13843 7.78841 3.13843 7.81453C3.13843 7.84065 3.11288 7.86678 3.11288 7.86678C3.08732 7.8929 3.06177 7.94515 3.03621 7.97128C2.98511 8.02353 2.934 8.07577 2.88289 8.07577C2.80622 8.1019 2.704 8.04965 2.57623 7.97128C2.49956 7.91903 2.4229 7.86678 2.34623 7.81453C2.24401 7.73616 2.14179 7.65778 2.03957 7.60554C1.57958 7.34429 1.06849 7.29204 0.659607 7.50104C0.378503 7.63166 0.199619 7.84065 0.0462891 8.04965C-0.00482079 8.12802 -0.0048207 8.23252 0.0718441 8.28477L0.506278 8.62438Z" fill="#3076BD"/>
</svg>
