<svg width="26" height="15" viewBox="0 0 26 15" fill="none" xmlns="http://www.w3.org/2000/svg">
<path d="M25.4375 5.06903C18.5505 -1.66198 7.49806 -1.68956 0.58331 4.98628C0.47223 5.09662 0.47223 5.28972 0.58331 5.40007L2.41613 7.22075C8.24785 1.42767 17.6897 1.42767 23.5214 7.22075L25.4375 5.31731C25.5208 5.26214 25.5208 5.12421 25.4375 5.06903Z" fill="#3076BD"/>
<path d="M4.69329 9.06898C4.58221 9.17933 4.58221 9.37243 4.69329 9.48277L6.38727 11.1655C10.0251 7.55175 15.9402 7.55175 19.578 11.1655L21.3276 9.4276C21.4109 9.34484 21.4109 9.2345 21.3276 9.15174C16.69 4.68279 9.35866 4.6552 4.69329 9.06898Z" fill="#3076BD"/>
<path d="M8.74768 13.0966C8.6366 13.2069 8.6366 13.4 8.74768 13.5104L10.2473 15C11.7468 13.5104 14.2184 13.5104 15.718 15L17.2731 13.4552C17.3564 13.3724 17.3564 13.2621 17.2731 13.1793C14.8849 10.9173 11.1637 10.9173 8.74768 13.0966Z" fill="#3076BD"/>
</svg>
