<svg width="29" height="19" viewBox="0 0 29 19" fill="none" xmlns="http://www.w3.org/2000/svg">
<path d="M16.2683 11.9434C16.0111 12.1378 15.6574 12.2674 15.3038 12.2674C15.1752 12.2674 15.0144 12.235 14.8858 12.235C14.5965 12.1702 14.3392 12.0406 14.1142 11.9434C14.0499 11.911 13.9534 11.8786 13.8891 11.8462C13.0211 11.4898 11.9601 11.6194 10.867 11.749C10.4812 11.7814 10.0953 11.8462 9.70954 11.8786C9.58093 11.8786 9.48448 12.0082 9.48448 12.1378V13.2393C9.48448 13.3689 9.61308 13.4985 9.74169 13.4985H28.7428C28.8714 13.4985 29 13.3689 29 13.2393V8.18528C29 7.37534 28.3891 6.72739 27.6497 6.72739H10.8027C10.6098 6.72739 10.3847 6.695 10.2882 6.85698C10.2561 6.88938 10.2561 6.92178 10.2561 6.95417C10.2561 7.08376 10.3526 7.18096 10.4812 7.18096H11.6386C13.5355 7.18096 15.3681 8.12048 16.4612 9.67556C16.7184 10.0643 16.847 10.4855 16.847 10.8743C16.7827 11.2954 16.5898 11.6842 16.2683 11.9434Z" fill="#3076BD"/>
<path d="M28.6784 15.0535H9.67732C9.54872 15.0535 9.42012 15.1831 9.42012 15.3127V17.5157C9.42012 18.3256 10.031 18.9736 10.7704 18.9736H27.5853C28.3248 18.9736 28.9356 18.3256 28.9356 17.5157V15.3127C28.9356 15.1507 28.807 15.0535 28.6784 15.0535Z" fill="#3076BD"/>
<path d="M0.385809 10.1291H1.86475C2.05765 10.1291 2.25055 9.9671 2.25055 9.77271L2.34701 8.6712C2.34701 8.47682 2.50776 8.34723 2.66851 8.31483C3.50443 8.21764 4.34036 8.60641 5.01552 9.12477C5.78714 9.70792 6.46231 10.4207 7.36253 10.777C9.48448 11.6518 12.0244 10.1939 14.1463 11.101C14.4357 11.2306 14.6929 11.3926 15.0144 11.4574C15.4645 11.5546 16.0111 11.425 16.0432 10.8094C16.0432 10.5503 15.9468 10.2911 15.8182 10.0967C14.8537 8.76839 13.2461 7.92606 11.6064 7.92606H10.449C9.90244 7.92606 9.45233 7.4725 9.45233 6.92174C9.45233 6.37098 9.90244 5.91742 10.449 5.91742H18.3259C18.5831 5.91742 18.6796 5.59345 18.4545 5.43146L11.7672 1.28459C11.3492 1.02541 10.867 0.928215 10.4169 0.99301L2.66851 2.51569C2.44346 2.54809 2.2184 2.3537 2.2184 2.12692C2.2184 1.90014 2.05765 1.73815 1.83259 1.73815H0.385809C0.160754 1.73815 0 1.90014 0 2.12692V9.77271C0 9.9671 0.160754 10.1291 0.385809 10.1291Z" fill="#3076BD"/>
</svg>
