<svg width="54" height="75" viewBox="0 0 54 75" fill="none" xmlns="http://www.w3.org/2000/svg">
<path d="M31.9361 65.1727H22.0517C21.5237 65.1727 21.0941 64.745 21.0941 64.2191C21.0941 64.0503 21.1356 63.8864 21.2141 63.7434C22.035 62.1376 22.5769 60.7179 22.8703 59.4033C23.1613 58.0979 23.2106 56.8994 23.0194 55.7519C20.6102 54.9942 18.4759 53.5542 16.8279 51.5703C15.2115 49.6113 14.2028 47.2711 13.8958 44.78C12.4776 44.2589 11.2093 43.328 10.2932 42.128C9.22163 40.7242 8.65538 39.0539 8.65538 37.298V28.7651C8.65538 28.2393 9.08588 27.8116 9.61519 27.8116H13.8023V24.7824C13.8023 24.2504 14.2292 23.8175 14.754 23.8175H39.2398C39.768 23.8175 40.1976 24.2503 40.1976 24.7824V27.8116H44.3848C44.9139 27.8116 45.3444 28.2393 45.3444 28.7651V37.298C45.3444 39.0451 44.7784 40.7148 43.7079 42.1265C42.78 43.331 41.5121 44.2616 40.1036 44.7796C39.7956 47.2719 38.787 49.6117 37.1728 51.5686C35.5433 53.5381 33.4104 54.9779 30.9861 55.7501C30.7809 56.9585 30.8259 58.1821 31.1226 59.4783C31.4094 60.7627 31.935 62.1237 32.7769 63.7646C33.0229 64.2108 32.8594 64.7855 32.4068 65.0542C32.3814 65.069 32.355 65.0821 32.3278 65.0934C32.199 65.1468 32.0709 65.1727 31.9361 65.1727ZM22.4696 63.9558H31.5101C30.7262 62.3797 30.2235 61.0336 29.9359 59.7468C29.5764 58.1752 29.5513 56.6276 29.862 55.1497C29.9081 54.9292 30.0726 54.7526 30.2889 54.6903C32.6261 54.0176 34.6824 52.6702 36.2348 50.7939C37.7777 48.9234 38.7114 46.6679 38.9349 44.2721C38.9576 44.027 39.126 43.82 39.3608 43.7472C40.6839 43.3376 41.8843 42.4998 42.7408 41.3877C43.647 40.193 44.1274 38.7776 44.1274 37.2982V29.0287H39.5891C39.2529 29.0287 38.9805 28.7563 38.9805 28.4203V25.0346H15.0193V28.4203C15.0193 28.7563 14.7469 29.0287 14.4109 29.0287H9.87263V37.2982C9.87263 38.7851 10.3528 40.1999 11.2609 41.3898C12.1065 42.4972 13.3063 43.3346 14.6393 43.7471C14.8744 43.8198 15.0424 44.0268 15.0653 44.2719C15.2876 46.6668 16.2216 48.9224 17.7658 50.7944C19.3369 52.6857 21.3943 54.0329 23.7144 54.6892C23.9319 54.7507 24.0973 54.9277 24.1442 55.1487C24.4459 56.5766 24.4179 58.055 24.0585 59.6681C23.7632 60.989 23.2425 62.3947 22.4696 63.9558Z" fill="#00327F"/>
<path d="M39.5895 41.9558C39.4804 41.9558 39.3714 41.9266 39.2751 41.8684C39.0924 41.7582 38.9809 41.5605 38.9809 41.3474V31.1792C38.9809 30.8432 39.2533 30.5708 39.5895 30.5708H42.1716C42.5076 30.5708 42.78 30.8432 42.78 31.1792V37.0977C42.78 38.1856 42.4521 39.2359 41.8314 40.1346C41.3484 40.8576 40.6693 41.4659 39.8732 41.8855C39.7841 41.9325 39.6866 41.9558 39.5895 41.9558ZM40.1977 31.7877V40.1809C40.4361 39.9619 40.6472 39.7169 40.8249 39.451C41.3098 38.7486 41.5633 37.9375 41.5633 37.0977V31.7877H40.1977Z" fill="#00327F"/>
<path d="M14.4107 41.9559C14.3141 41.9559 14.2174 41.9328 14.1291 41.8867C13.3395 41.4742 12.6583 40.8669 12.1594 40.1305C11.5453 39.2311 11.2202 38.1819 11.2202 37.0979V31.1795C11.2202 30.8435 11.4926 30.571 11.8286 30.571H14.4107C14.7467 30.571 15.0191 30.8435 15.0191 31.1795V41.3476C15.0191 41.5604 14.9079 41.7579 14.7259 41.8679C14.6293 41.9262 14.5202 41.9559 14.4107 41.9559ZM12.4371 31.7877V37.0977C12.4371 37.9359 12.6891 38.7479 13.1657 39.446C13.3487 39.716 13.5628 39.9635 13.8024 40.183V31.7877H12.4371Z" fill="#00327F"/>
<path d="M36.8319 72.3028H17.1677C16.8317 72.3028 16.5592 72.0304 16.5592 71.6944V64.5641C16.5592 64.2281 16.8317 63.9557 17.1677 63.9557H36.8319C37.1679 63.9557 37.4404 64.2281 37.4404 64.5641V71.6944C37.4406 72.0304 37.1679 72.3028 36.8319 72.3028ZM17.7761 71.0859H36.2235V65.1726H17.7761V71.0859Z" fill="#3076BD"/>
<path d="M38.8168 74.172H15.1774C14.8414 74.172 14.5689 73.8996 14.5689 73.5636V71.6944C14.5689 71.3584 14.8414 71.0859 15.1774 71.0859H38.8168C39.1528 71.0859 39.4253 71.3584 39.4253 71.6944V73.5636C39.4254 73.8996 39.1528 74.172 38.8168 74.172ZM15.7858 72.9551H38.2084V72.3028H15.7858V72.9551Z" fill="#00327F"/>
<path d="M39.5895 28.194H25.212C24.876 28.194 24.6036 27.9216 24.6036 27.5856C24.6036 27.2496 24.876 26.9772 25.212 26.9772H39.5895C39.9255 26.9772 40.1978 27.2496 40.1978 27.5856C40.1978 27.9216 39.9255 28.194 39.5895 28.194Z" fill="#3076BD" fill-opacity="0.3"/>
<path d="M22.2405 28.194H19.3268C18.9908 28.194 18.7183 27.9216 18.7183 27.5856C18.7183 27.2496 18.9908 26.9772 19.3268 26.9772H22.2405C22.5765 26.9772 22.8489 27.2496 22.8489 27.5856C22.8489 27.9216 22.5765 28.194 22.2405 28.194Z" fill="#3076BD" fill-opacity="0.3"/>
<path d="M27.6922 69.578H17.1677C16.8317 69.578 16.5592 69.3057 16.5592 68.9695C16.5592 68.6335 16.8317 68.3611 17.1677 68.3611H27.6922C28.0282 68.3611 28.3007 68.6335 28.3007 68.9695C28.3007 69.3057 28.0282 69.578 27.6922 69.578Z" fill="#3076BD"/>
<path d="M31.5911 69.578H29.9175C29.5815 69.578 29.3091 69.3057 29.3091 68.9695C29.3091 68.6335 29.5815 68.3611 29.9175 68.3611H31.5911C31.9271 68.3611 32.1996 68.6335 32.1996 68.9695C32.1996 69.3057 31.9271 69.578 31.5911 69.578Z" fill="#3076BD"/>
<path d="M27.0039 7.62456C26.6679 7.62456 26.3955 7.35213 26.3955 7.01613V0.608315C26.3955 0.272315 26.6679 -0.00012207 27.0039 -0.00012207C27.3401 -0.00012207 27.6124 0.272315 27.6124 0.608315V7.01613C27.6126 7.35213 27.3401 7.62456 27.0039 7.62456Z" fill="#00327F"/>
<path d="M46.7272 18.3159C46.5112 18.3159 46.3018 18.2004 46.1917 17.9969C46.0318 17.7014 46.1417 17.3323 46.4374 17.1721L52.3341 13.9798C52.6294 13.82 52.9987 13.9297 53.1587 14.2252C53.3188 14.5207 53.2089 14.8899 52.9132 15.05L47.0164 18.2424C46.9245 18.2923 46.8249 18.3159 46.7272 18.3159Z" fill="#00327F"/>
<path d="M7.27294 18.3159C7.17525 18.3159 7.07606 18.2924 6.984 18.2424L1.08263 15.05C0.787128 14.8901 0.677064 14.5209 0.837002 14.2254C0.996939 13.9297 1.36631 13.82 1.66163 13.9797L7.563 17.1721C7.85869 17.3321 7.96856 17.7012 7.80881 17.9967C7.69856 18.2004 7.48913 18.3159 7.27294 18.3159Z" fill="#00327F"/>
<path d="M37.8591 11.3408C37.7503 11.3408 37.6403 11.3115 37.5409 11.2506C37.2548 11.0745 37.1653 10.6997 37.3414 10.4134L39.4223 7.03128C39.5983 6.74496 39.9731 6.65609 40.2593 6.83196C40.5454 7.00803 40.6348 7.38284 40.4586 7.66915L38.3779 11.0513C38.2628 11.238 38.0633 11.3408 37.8591 11.3408Z" fill="#00327F"/>
<path d="M52.8844 29.018H48.7232C48.3872 29.018 48.1149 28.7456 48.1149 28.4096C48.1149 28.0736 48.3872 27.8011 48.7232 27.8011H52.8844C53.2206 27.8011 53.493 28.0736 53.493 28.4096C53.493 28.7456 53.2206 29.018 52.8844 29.018Z" fill="#00327F"/>
<path d="M5.27717 29.018H1.11543C0.779425 29.018 0.506989 28.7456 0.506989 28.4096C0.506989 28.0736 0.779425 27.8011 1.11543 27.8011H5.27717C5.61317 27.8011 5.88561 28.0736 5.88561 28.4096C5.88561 28.7456 5.61317 29.018 5.27717 29.018Z" fill="#00327F"/>
<path d="M16.1349 11.3408C15.9306 11.3408 15.7311 11.2379 15.6161 11.0511L13.5352 7.66919C13.3592 7.38288 13.4484 7.00825 13.7346 6.832C14.0209 6.65594 14.3955 6.74519 14.5717 7.03131L16.6524 10.4134C16.8285 10.6998 16.7393 11.0744 16.4531 11.2506C16.3538 11.3118 16.2437 11.3408 16.1349 11.3408Z" fill="#00327F"/>
<path d="M27.0039 16.9471C26.6679 16.9471 26.3955 16.6747 26.3955 16.3387V12.7342C26.3955 12.3982 26.6679 12.1257 27.0039 12.1257C27.3401 12.1257 27.6124 12.3982 27.6124 12.7342V16.3387C27.6126 16.6747 27.3401 16.9471 27.0039 16.9471Z" fill="#00327F"/>
<path d="M37.4505 22.9877C37.2401 22.9877 37.0354 22.8786 36.9231 22.6832C36.7551 22.3921 36.855 22.0199 37.146 21.8521L40.2703 20.0504C40.5611 19.8826 40.9335 19.9821 41.1013 20.2735C41.2693 20.5647 41.1694 20.9367 40.8784 21.1047L37.7541 22.9064C37.6583 22.9615 37.5538 22.9877 37.4505 22.9877Z" fill="#00327F"/>
<path d="M16.5452 22.9878C16.4421 22.9878 16.3376 22.9615 16.242 22.9064L13.1158 21.1047C12.8246 20.9369 12.7247 20.5647 12.8925 20.2737C13.0603 19.9825 13.4323 19.8826 13.7235 20.0504L16.8497 21.8521C17.1409 22.0199 17.2408 22.3919 17.073 22.6831C16.9603 22.8787 16.7556 22.9878 16.5452 22.9878Z" fill="#00327F"/>
<path d="M32.7544 19.0501C32.6509 19.0501 32.5464 19.0236 32.4504 18.9683C32.1594 18.8001 32.0599 18.4281 32.2281 18.1369L33.3272 16.2346C33.4952 15.9436 33.8677 15.8446 34.1586 16.0122C34.4496 16.1804 34.5491 16.5526 34.3811 16.8436L33.2818 18.7459C33.1691 18.9411 32.9647 19.0501 32.7544 19.0501Z" fill="#00327F"/>
<path d="M21.2417 19.0501C21.0311 19.0501 20.8266 18.9408 20.7139 18.7452L19.6183 16.8428C19.4505 16.5517 19.5506 16.1797 19.8418 16.012C20.1328 15.8442 20.505 15.9443 20.6728 16.2355L21.7684 18.1379C21.9362 18.4291 21.8361 18.8011 21.5449 18.9689C21.4491 19.0238 21.3448 19.0501 21.2417 19.0501Z" fill="#00327F"/>
<path d="M43.4499 74.1723H11.6839C11.3479 74.1723 11.0754 73.8999 11.0754 73.5639C11.0754 73.2279 11.3479 72.9554 11.6839 72.9554H43.4499C43.7861 72.9554 44.0584 73.2279 44.0584 73.5639C44.0584 73.8999 43.7861 74.1723 43.4499 74.1723Z" fill="#00327F"/>
<path d="M27.5223 31.5436C27.6677 31.074 28.3323 31.074 28.4777 31.5436L30.1362 36.9031C30.201 37.1125 30.3946 37.2553 30.6138 37.2553H36.0308C36.5092 37.2553 36.7144 37.8627 36.334 38.1529L31.9103 41.5276C31.7436 41.6548 31.6739 41.8726 31.7359 42.0729L33.4156 47.501C33.5595 47.966 33.0217 48.3415 32.6347 48.0463L28.3033 44.742C28.1242 44.6054 27.8758 44.6054 27.6967 44.742L23.3653 48.0463C22.9783 48.3415 22.4405 47.966 22.5844 47.501L24.2641 42.0729C24.3261 41.8726 24.2564 41.6548 24.0897 41.5276L19.666 38.1529C19.2856 37.8627 19.4908 37.2553 19.9692 37.2553H25.3862C25.6054 37.2553 25.799 37.1125 25.8638 36.9031L27.5223 31.5436Z" fill="#3076BD" fill-opacity="0.28"/>
<path d="M23.2918 46.4727C23.166 46.4727 23.0404 46.4339 22.9337 46.3561C22.7203 46.2007 22.6314 45.9254 22.7138 45.6745L24.006 41.7356L20.6439 39.3042C20.4298 39.1495 20.3402 38.8743 20.4218 38.6232C20.5033 38.3724 20.7369 38.2027 21.0004 38.2027C21.0008 38.2027 21.0011 38.2027 21.0017 38.2027L25.1469 38.2117L26.4251 34.2626C26.5065 34.0115 26.7401 33.8414 27.0039 33.8414C27.0043 33.8414 27.0045 33.8414 27.0049 33.8414C27.2691 33.8418 27.5027 34.0128 27.5835 34.2642L28.8482 38.2117L32.9983 38.2027C32.9989 38.2027 32.9991 38.2027 32.9996 38.2027C33.2631 38.2027 33.4967 38.3724 33.5783 38.6231C33.6602 38.8739 33.5704 39.149 33.3564 39.3041L29.9994 41.7356L31.2868 45.6751C31.3688 45.9262 31.2795 46.2014 31.0658 46.3565C30.852 46.5117 30.5623 46.5112 30.3497 46.3557L27.0036 43.9137L23.6499 46.3561C23.5433 46.4337 23.4176 46.4727 23.2918 46.4727ZM22.8859 39.4239L25.0793 41.0099C25.2938 41.1652 25.3834 41.441 25.3009 41.6928L24.4577 44.2623L26.6458 42.6687C26.8598 42.5131 27.1494 42.5135 27.3628 42.6691L29.5446 44.2616L28.7049 41.6921C28.6228 41.4408 28.7124 41.1654 28.9266 41.0101L31.1168 39.4239L28.4061 39.4295C28.1483 39.4267 27.9062 39.2592 27.8254 39.0069L27.0011 36.4349L26.1683 39.0086C26.0869 39.2596 25.8533 39.4295 25.5894 39.4295C25.5891 39.4295 25.5887 39.4295 25.5881 39.4295L22.8859 39.4239Z" fill="#00327F"/>
<path d="M29.3162 53.581C29.1045 53.581 28.8986 53.4702 28.7867 53.273C28.6206 52.9809 28.7229 52.6094 29.0151 52.4433C35.2281 48.9115 35.4517 46.6374 35.5856 45.2785L35.5969 45.1677C35.6306 44.8332 35.9288 44.5891 36.2634 44.6236C36.5978 44.6575 36.8413 44.956 36.8074 45.2904L36.7969 45.3976C36.6399 46.9912 36.3774 49.6582 29.6164 53.5014C29.5215 53.5552 29.418 53.581 29.3162 53.581Z" fill="#3076BD" fill-opacity="0.3"/>
</svg>
