<svg width="214" height="144" viewBox="0 0 214 144" fill="none" xmlns="http://www.w3.org/2000/svg">
<path d="M-43.362 51.4198V102.214C-43.362 111.276 -36.4338 118.192 -27.3554 118.192H-26.8776C-26.8776 99.591 -11.3489 84.0904 7.28564 84.0904C25.9202 84.0904 41.4489 99.591 41.4489 118.192H128.171C128.171 99.591 143.7 84.0904 162.334 84.0904C180.969 84.0904 196.498 99.591 196.498 118.192H196.975C206.054 118.192 212.982 111.276 212.982 102.214V82.4211C212.982 73.3592 209.16 64.7742 202.709 58.8125C196.259 52.3737 188.375 48.5582 178.58 48.5582C169.024 48.5582 159.945 44.2657 153.495 37.35L125.782 6.34878C123.154 3.24865 118.854 1.10242 114.076 1.10242H-12.3045C-18.2771 1.10242 -24.0108 4.91796 -26.6387 10.6413L-41.6897 45.6965C-42.8842 47.8428 -43.362 49.989 -43.362 51.4198ZM99.0248 54.043V11.8336H115.509C116.465 11.8336 118.137 12.3106 119.332 13.5029L146.806 44.5042C149.911 48.3197 154.212 51.4198 158.99 54.043H98.547H99.0248ZM39.0599 12.0721H87.3185V54.2815H39.0599V12.0721ZM-32.6113 52.1353C-32.6113 51.6583 -32.6113 50.466 -32.1335 49.989L-16.6048 15.1722C-15.6491 13.026 -13.9768 12.0721 -11.8267 12.0721H28.3092V54.2815H-32.6113V52.1353Z" fill="white"/>
<path d="M166.394 142.226C179.288 140.137 188.044 128.01 185.951 115.14C183.859 102.269 171.71 93.5287 158.816 95.6175C145.922 97.7063 137.166 109.833 139.258 122.704C141.351 135.574 153.5 144.315 166.394 142.226Z" fill="white"/>
<path d="M7.52454 142.516C20.5869 142.516 31.176 131.946 31.176 118.907C31.176 105.869 20.5869 95.2986 7.52454 95.2986C-5.53782 95.2986 -16.127 105.869 -16.127 118.907C-16.127 131.946 -5.53782 142.516 7.52454 142.516Z" fill="white"/>
<path d="M-43.362 51.4198V102.214C-43.362 111.276 -36.4338 118.192 -27.3554 118.192H-26.8776C-26.8776 99.591 -11.3489 84.0904 7.28564 84.0904C25.9202 84.0904 41.4489 99.591 41.4489 118.192H128.171C128.171 99.591 143.7 84.0904 162.334 84.0904C180.969 84.0904 196.498 99.591 196.498 118.192H196.975C206.054 118.192 212.982 111.276 212.982 102.214V82.4211C212.982 73.3592 209.16 64.7742 202.709 58.8125C196.259 52.3737 188.375 48.5582 178.58 48.5582C169.024 48.5582 159.945 44.2657 153.495 37.35L125.782 6.34878C123.154 3.24865 118.854 1.10242 114.076 1.10242H-12.3045C-18.2771 1.10242 -24.0108 4.91796 -26.6387 10.6413L-41.6897 45.6965C-42.8842 47.8428 -43.362 49.989 -43.362 51.4198ZM99.0248 54.043V11.8336H115.509C116.465 11.8336 118.137 12.3106 119.332 13.5029L146.806 44.5042C149.911 48.3197 154.212 51.4198 158.99 54.043H98.547H99.0248ZM39.0599 12.0721H87.3185V54.2815H39.0599V12.0721ZM-32.6113 52.1353C-32.6113 51.6583 -32.6113 50.466 -32.1335 49.989L-16.6048 15.1722C-15.6491 13.026 -13.9768 12.0721 -11.8267 12.0721H28.3092V54.2815H-32.6113V52.1353Z" stroke="white" stroke-width="1.5" stroke-miterlimit="10"/>
<path d="M166.394 142.226C179.288 140.137 188.044 128.01 185.951 115.14C183.859 102.269 171.71 93.5287 158.816 95.6175C145.922 97.7063 137.166 109.833 139.258 122.704C141.351 135.574 153.5 144.315 166.394 142.226Z" stroke="white" stroke-width="1.5" stroke-miterlimit="10"/>
<path d="M7.52454 142.516C20.5869 142.516 31.176 131.946 31.176 118.907C31.176 105.869 20.5869 95.2986 7.52454 95.2986C-5.53782 95.2986 -16.127 105.869 -16.127 118.907C-16.127 131.946 -5.53782 142.516 7.52454 142.516Z" stroke="white" stroke-width="1.5" stroke-miterlimit="10"/>
</svg>
