<svg width="28" height="26" viewBox="0 0 28 26" fill="none" xmlns="http://www.w3.org/2000/svg">
<path d="M13.5245 0.463526C13.6741 0.0028702 14.3259 0.00286996 14.4755 0.463525L17.2555 9.01925C17.3224 9.22526 17.5144 9.36475 17.731 9.36475H26.727C27.2114 9.36475 27.4128 9.98455 27.0209 10.2693L19.743 15.557C19.5677 15.6843 19.4944 15.91 19.5613 16.116L22.3413 24.6717C22.4909 25.1324 21.9637 25.5154 21.5718 25.2307L14.2939 19.943C14.1186 19.8157 13.8814 19.8157 13.7061 19.943L6.42817 25.2307C6.03631 25.5154 5.50907 25.1324 5.65875 24.6717L8.43867 16.116C8.50561 15.91 8.43228 15.6843 8.25704 15.557L0.979102 10.2693C0.587245 9.98455 0.788632 9.36475 1.27299 9.36475H10.269C10.4856 9.36475 10.6776 9.22526 10.7445 9.01925L13.5245 0.463526Z" fill="#3076BD"/>
</svg>
