<svg width="75" height="66" viewBox="0 0 75 66" fill="none" xmlns="http://www.w3.org/2000/svg">
<path d="M67.2109 47.6091H54.4958C54.2779 47.6091 54.0769 47.4928 53.9683 47.3042L53.1124 45.8167C52.872 45.4001 52.4212 45.141 51.9366 45.141C51.708 45.141 51.4828 45.2004 51.2844 45.3133L51.0853 45.4408C50.9456 45.5304 50.7752 45.5591 50.6132 45.5197C50.4519 45.4805 50.3134 45.377 50.2301 45.2332L47.5476 40.5969C46.9011 41.1275 46.2204 41.5986 45.5173 42.0021C44.8333 42.3994 44.0891 42.7511 43.2996 43.0505L45.3664 46.6468C45.4376 46.7465 45.4798 46.8688 45.4798 47.0008C45.4798 47.3368 45.2074 47.6092 44.8712 47.6092C44.8702 47.6094 44.8691 47.6094 44.8678 47.6092H7.78913C3.72263 47.6092 0.414001 44.2984 0.414001 40.2287V7.36706C0.414001 3.30487 3.72263 0 7.78913 0H67.2109C71.2776 0 74.586 3.30487 74.586 7.36706V40.2285C74.586 44.298 71.2776 47.6091 67.2109 47.6091ZM54.8475 46.392H67.2109C70.6065 46.392 73.3691 43.6269 73.3691 40.2283V7.36706C73.3691 3.97594 70.6067 1.21688 67.2109 1.21688H7.78913C4.3935 1.21688 1.63088 3.97575 1.63088 7.36706V40.2285C1.63088 43.6271 4.3935 46.3922 7.78913 46.3922H43.8167L41.8808 43.0237C41.7896 42.8651 41.7746 42.6741 41.8399 42.5031C41.9055 42.3322 42.0441 42.1999 42.2181 42.1427C43.1906 41.8226 44.0961 41.4206 44.9092 40.9481C45.7491 40.4664 46.5521 39.8807 47.2993 39.2055C47.4358 39.0825 47.6205 39.0276 47.8016 39.0561C47.9833 39.0844 48.1419 39.1931 48.234 39.3523L50.9861 44.1088C51.2871 43.9875 51.6103 43.9241 51.9368 43.9241C52.8549 43.9241 53.7097 44.4167 54.1671 45.2094L54.8475 46.392Z" fill="#00327F"/>
<path d="M55.0104 10.9495H1.02244C0.686439 10.9495 0.414001 10.6771 0.414001 10.3411C0.414001 10.0051 0.686439 9.73267 1.02244 9.73267H55.0104C55.3464 9.73267 55.6189 10.0051 55.6189 10.3411C55.6189 10.6771 55.3464 10.9495 55.0104 10.9495Z" fill="#00327F"/>
<path d="M9.99975 8.00495C8.57982 8.00495 7.42463 6.84977 7.42463 5.42983C7.42463 4.00914 8.57982 2.85339 9.99975 2.85339C11.4139 2.85339 12.564 4.00914 12.564 5.42983C12.564 6.84977 11.4137 8.00495 9.99975 8.00495ZM9.99975 4.07046C9.25088 4.07046 8.6415 4.68021 8.6415 5.42983C8.6415 6.17889 9.25088 6.78808 9.99975 6.78808C10.7426 6.78808 11.3471 6.1787 11.3471 5.42983C11.3471 4.68021 10.7426 4.07046 9.99975 4.07046Z" fill="#00327F"/>
<path d="M17.5521 8.00495C16.1321 8.00495 14.9769 6.84977 14.9769 5.42983C14.9769 4.00914 16.1321 2.85339 17.5521 2.85339C18.9718 2.85339 20.1268 4.00914 20.1268 5.42983C20.1268 6.84977 18.9718 8.00495 17.5521 8.00495ZM17.5521 4.07046C16.803 4.07046 16.1938 4.68021 16.1938 5.42983C16.1938 6.17889 16.8032 6.78808 17.5521 6.78808C18.3008 6.78808 18.9099 6.1787 18.9099 5.42983C18.9099 4.68021 18.3008 4.07046 17.5521 4.07046Z" fill="#00327F"/>
<path d="M25.1151 8.00495C23.6981 8.00495 22.5454 6.84977 22.5454 5.42983C22.5454 4.00914 23.6981 2.85339 25.1151 2.85339C26.532 2.85339 27.6848 4.00914 27.6848 5.42983C27.6848 6.84977 26.532 8.00495 25.1151 8.00495ZM25.1151 4.07046C24.3692 4.07046 23.7624 4.68021 23.7624 5.42983C23.7624 6.17889 24.3692 6.78808 25.1151 6.78808C25.8609 6.78808 26.4677 6.1787 26.4677 5.42983C26.4679 4.68021 25.8609 4.07046 25.1151 4.07046Z" fill="#00327F"/>
<path d="M44.0014 35.7603H31.0097C30.6737 35.7603 30.4012 35.4881 30.4012 35.1519V22.1752C30.4012 21.8392 30.6737 21.5668 31.0097 21.5668H44.0014C44.3376 21.5668 44.6098 21.8392 44.6098 22.1752V35.1519C44.6098 35.4881 44.3376 35.7603 44.0014 35.7603ZM31.6181 34.5435H43.3929V22.7836H31.6181V34.5435Z" fill="#00327F"/>
<circle cx="38" cy="28" r="19" fill="#3076BD" fill-opacity="0.28"/>
<path d="M37.9174 44.043C37.917 44.043 37.9168 44.043 37.9168 44.043C32.4793 44.0428 27.4118 41.1204 24.6915 36.4166C20.4962 29.1426 23.0019 19.7964 30.2766 15.5818C32.5946 14.2448 35.2252 13.5385 37.8846 13.5385C43.323 13.5385 48.3887 16.4606 51.1054 21.1648C55.305 28.4366 52.7994 37.7833 45.5199 42.0004C43.2041 43.3369 40.5754 44.043 37.9174 44.043ZM37.8846 14.7553C35.4384 14.7553 33.018 15.4054 30.8856 16.6354C24.1914 20.5138 21.8852 29.1148 25.7452 35.808C28.2482 40.1364 32.9122 42.8259 37.9166 42.8261H37.9172C40.3622 42.8261 42.7804 42.1763 44.9106 40.9472C51.6094 37.0665 53.916 28.4651 50.0514 21.7736C47.5515 17.4446 42.8895 14.7553 37.8846 14.7553Z" fill="#00327F"/>
<path d="M45.4425 48.6003C45.3896 48.6003 45.3366 48.5933 45.2842 48.5795C45.1286 48.5375 44.9955 48.4351 44.9151 48.2952L41.8807 43.024C41.7894 42.8654 41.7744 42.6741 41.8397 42.5033C41.9053 42.3323 42.0439 42.1998 42.2179 42.1426C43.1334 41.8413 44.0411 41.438 44.9156 40.9443C45.7487 40.4661 46.5519 39.8804 47.2991 39.2054C47.4356 39.0824 47.6203 39.0275 47.8014 39.056C47.9831 39.0843 48.1417 39.193 48.2338 39.3522L51.2839 44.6236C51.3649 44.7635 51.3868 44.9296 51.345 45.0858C51.303 45.2418 51.2008 45.3749 51.0609 45.4555L45.7462 48.5191C45.6531 48.5725 45.5482 48.6003 45.4425 48.6003ZM43.2996 43.0488L45.6662 47.1605L49.9254 44.7053L47.5479 40.5966C46.9014 41.1273 46.2208 41.5983 45.5177 42.0018C44.7941 42.4102 44.0514 42.7608 43.2996 43.0488Z" fill="#00327F"/>
<path d="M54.0486 65.9305C53.1253 65.9305 52.272 65.4389 51.8214 64.6476L43.9839 51.0889C43.6438 50.5047 43.5521 49.8183 43.7273 49.1579C43.9041 48.49 44.3299 47.9318 44.9261 47.5859L50.6638 44.266C51.0497 44.0423 51.4899 43.9238 51.9368 43.9238C52.8549 43.9238 53.7098 44.4164 54.1669 45.2091L61.9952 58.771C62.7007 59.9963 62.2828 61.5679 61.0639 62.275L55.3204 65.5951C54.9292 65.8158 54.4916 65.9305 54.0486 65.9305ZM51.9366 45.1409C51.7039 45.1409 51.4747 45.2026 51.2737 45.3192L45.5361 48.6391C45.2218 48.8213 44.997 49.1163 44.9036 49.4695C44.8119 49.8156 44.8592 50.1738 45.0366 50.4784L52.8767 64.0424C53.1133 64.4579 53.5614 64.7138 54.0484 64.7138C54.2826 64.7138 54.5136 64.6533 54.7166 64.5387L60.4536 61.2222C61.0931 60.8511 61.3119 60.0243 60.9405 59.3791L53.1126 45.8176C52.8718 45.4 52.4212 45.1409 51.9366 45.1409Z" fill="#00327F"/>
<path d="M55.62 61.9802C54.7179 61.9802 53.8794 61.4953 53.4317 60.7148C53.0916 60.1343 52.9982 59.4521 53.1718 58.7989C53.3447 58.1486 53.7611 57.6064 54.3443 57.2715C54.7262 57.0525 55.1599 56.9366 55.5982 56.9366C56.5001 56.9366 57.3384 57.4215 57.7866 58.2021C58.1267 58.7828 58.2201 59.4649 58.0462 60.1185C57.8734 60.7684 57.4569 61.3106 56.8736 61.6455C56.4919 61.8645 56.0586 61.9802 55.62 61.9802ZM55.5981 58.1535C55.3718 58.1535 55.1479 58.2135 54.9501 58.3271C54.6504 58.4989 54.4367 58.7775 54.3478 59.1116C54.2582 59.4488 54.3066 59.8016 54.4843 60.1045C54.7187 60.5128 55.1528 60.7635 55.62 60.7635C55.8463 60.7635 56.07 60.7037 56.2678 60.5903C56.5674 60.4183 56.7812 60.1397 56.8701 59.8058C56.9599 59.4685 56.9113 59.1158 56.7337 58.8128C56.4992 58.4044 56.0653 58.1535 55.5981 58.1535Z" fill="#00327F"/>
<path d="M23.3064 37.8179C23.0961 37.8179 22.8915 37.7088 22.7788 37.5132C17.9741 29.1824 20.8421 18.488 29.172 13.6734C29.463 13.5052 29.8352 13.6046 30.0032 13.8957C30.1714 14.1867 30.0718 14.5589 29.7808 14.7269C22.0314 19.2061 19.3631 29.1552 23.8329 36.9054C24.0008 37.1966 23.901 37.5686 23.6098 37.7364C23.514 37.7915 23.4096 37.8179 23.3064 37.8179Z" fill="#3076BD"/>
<path d="M54.3716 32.9363C54.3291 32.9363 54.2863 32.932 54.2432 32.9226C53.9145 32.8521 53.7054 32.5285 53.7759 32.2C54.6238 28.252 53.9786 24.1604 51.9589 20.6787C51.7905 20.3881 51.8893 20.0157 52.1801 19.8471C52.4709 19.6789 52.8427 19.7772 53.0119 20.0682C55.1837 23.8118 55.8776 28.2111 54.966 32.4556C54.9047 32.7409 54.6523 32.9363 54.3716 32.9363Z" fill="#3076BD"/>
<path d="M18.4457 32.5149H11.9663C11.6303 32.5149 11.3578 32.2424 11.3578 31.9064V25.4187C11.3578 25.0827 11.6303 24.8103 11.9663 24.8103H18.4457C18.7817 24.8103 19.0541 25.0827 19.0541 25.4187V31.9064C19.0543 32.2424 18.7817 32.5149 18.4457 32.5149ZM12.5749 31.298H17.8373V26.0274H12.5749V31.298Z" fill="#00327F"/>
<path d="M63.2993 32.5149H56.8088C56.4728 32.5149 56.2003 32.2424 56.2003 31.9064V25.4187C56.2003 25.0827 56.4728 24.8103 56.8088 24.8103H63.2991C63.6351 24.8103 63.9075 25.0827 63.9075 25.4187V31.9064C63.9077 32.2424 63.6353 32.5149 63.2993 32.5149ZM57.4174 31.298H62.6908V26.0274H57.4174V31.298Z" fill="#00327F"/>
</svg>
