<svg width="64" height="71" viewBox="0 0 64 71" fill="none" xmlns="http://www.w3.org/2000/svg">
<path d="M18.886 55.0154C17.279 55.0154 15.7824 54.1542 14.9805 52.768L1.10024 28.7638C0.501432 27.7261 0.344291 26.5156 0.657504 25.3545C0.969469 24.1981 1.71063 23.2345 2.74434 22.6412L40.9712 0.602862C41.6463 0.209018 42.4195 0 43.2051 0C44.8094 0 46.3035 0.857598 47.1049 2.23819L60.9901 26.2454C62.2259 28.3998 61.4879 31.1512 59.346 32.3804L21.1191 54.4186C20.4403 54.809 19.6682 55.0154 18.886 55.0154ZM43.2051 1.15449C42.6244 1.15449 42.0529 1.3089 41.5522 1.60117L3.32159 23.6415C2.55477 24.0816 2.00549 24.7965 1.77388 25.6548C1.54102 26.5179 1.65736 27.4172 2.1017 28.1869L15.9818 52.1907C16.5777 53.2209 17.6905 53.8609 18.886 53.8609C19.4659 53.8609 20.0384 53.7081 20.5415 53.4185L58.769 31.38C60.3598 30.4669 60.9059 28.422 59.9878 26.8209L46.1038 2.81614C45.5091 1.79151 44.3982 1.15449 43.2051 1.15449Z" fill="#00327F"/>
<path d="M5.69027 36.1361C5.49037 36.1361 5.29617 36.0324 5.18909 35.8474L2.25224 30.7707C2.17545 30.6381 2.1546 30.4805 2.19433 30.3327C2.23406 30.1847 2.33098 30.0586 2.46372 29.9821L47.4774 4.03677C47.7538 3.87738 48.1072 3.97202 48.2672 4.24792L51.2041 9.322C51.2809 9.45452 51.3015 9.61213 51.262 9.76014C51.2221 9.90814 51.1253 10.0343 50.9924 10.1108L5.97872 36.0586C5.88785 36.1109 5.78826 36.1361 5.69027 36.1361ZM3.54286 30.6933L5.90122 34.7701L49.9135 9.39956L47.5551 5.32521L3.54286 30.6933Z" fill="#00327F"/>
<rect x="3.14154" y="30.1682" width="50.8689" height="6" transform="rotate(-30.1216 3.14154 30.1682)" fill="#3076BD" fill-opacity="0.28"/>
<path d="M13.6674 49.9237C13.6186 49.9237 13.5689 49.9175 13.5194 49.9045L10.5285 49.1162C10.2691 49.0479 10.0977 48.8142 10.0977 48.5586C10.0977 48.5096 10.104 48.46 10.117 48.4107C10.1984 48.1025 10.5148 47.9189 10.8236 47.9998L13.8144 48.788C14.0736 48.8564 14.245 49.0899 14.245 49.3457C14.245 49.3945 14.2388 49.4443 14.2258 49.4935C14.1575 49.7526 13.9236 49.9237 13.6674 49.9237Z" fill="#3076BD"/>
<path d="M29.7339 57.4283C29.6843 57.4283 29.6341 57.4219 29.5838 57.4085L19.891 54.8167C19.6325 54.7477 19.4622 54.5143 19.4623 54.259C19.4623 54.2099 19.4688 54.1596 19.4821 54.1096C19.5646 53.8017 19.8812 53.6191 20.1901 53.7013L29.883 56.2932C30.1415 56.3624 30.3118 56.5956 30.3118 56.8508C30.3118 56.8999 30.3054 56.9503 30.2919 57.0003C30.2227 57.258 29.9892 57.4283 29.7339 57.4283Z" fill="#3076BD"/>
<path d="M15.9912 53.7493C15.9419 53.7493 15.8918 53.7429 15.8419 53.7297L9.7282 52.102C9.46969 52.0332 9.29901 51.8001 9.29883 51.5449C9.29883 51.4956 9.30524 51.4454 9.31861 51.3954C9.40092 51.0875 9.71823 50.9052 10.0261 50.9863L16.14 52.614C16.3985 52.6828 16.5692 52.916 16.5694 53.1711C16.5694 53.2204 16.5629 53.2706 16.5498 53.3206C16.4806 53.5787 16.2467 53.7493 15.9912 53.7493Z" fill="#3076BD"/>
<path d="M44.46 34.1174C42.8564 34.1174 41.3598 33.2566 40.5545 31.871C39.9566 30.8281 39.7992 29.6199 40.1101 28.4657C40.4217 27.3087 41.1672 26.3439 42.2091 25.7492C42.8884 25.3527 43.6675 25.1415 44.4573 25.1415C44.7991 25.1415 45.1369 25.18 45.4672 25.2559C45.7934 24.1827 46.5176 23.267 47.5198 22.6844C48.2057 22.2864 48.9841 22.0762 49.7714 22.0762C51.3703 22.0762 52.8587 22.9361 53.656 24.3202C54.8958 26.4624 54.1587 29.2141 52.0124 30.4533C51.3282 30.8432 50.5541 31.0487 49.7711 31.0487C49.4254 31.0487 49.0843 31.0099 48.7507 30.9329C48.4211 32.0178 47.6973 32.9393 46.6992 33.5193C46.0147 33.9112 45.2414 34.1174 44.46 34.1174ZM44.4573 26.296C43.8724 26.296 43.295 26.4526 42.7876 26.7486C42.0104 27.1924 41.4576 27.9075 41.2267 28.7655C40.9956 29.6229 41.1127 30.521 41.5563 31.2943C42.1539 32.3223 43.2672 32.9627 44.46 32.9627C45.0403 32.9627 45.6143 32.8096 46.1209 32.5196C47.0047 32.0059 47.601 31.1276 47.7537 30.1124C47.7797 29.9385 47.8838 29.7862 48.0363 29.6981C48.1886 29.6104 48.373 29.5964 48.5369 29.6608C49.4734 30.0278 50.56 29.9516 51.4364 29.4519C53.0283 28.533 53.5756 26.4889 52.6541 24.8968C52.0621 23.8686 50.9578 23.2307 49.7714 23.2307C49.188 23.2307 48.6104 23.3867 48.1013 23.6823C47.2082 24.2014 46.6119 25.0732 46.4656 26.0738C46.4401 26.2482 46.3364 26.4013 46.1839 26.4897C46.0312 26.5783 45.8465 26.5924 45.6824 26.5278C45.2897 26.3741 44.8775 26.296 44.4573 26.296Z" fill="#3076BD"/>
<path d="M15.7364 45.8654C15.5365 45.8654 15.3423 45.7619 15.2352 45.5767C15.0756 45.3007 15.1704 44.9477 15.4469 44.788L23.6152 40.0788C23.8917 39.9194 24.2454 40.014 24.405 40.2901C24.5646 40.5663 24.4699 40.9193 24.1933 41.0788L16.025 45.7881C15.9338 45.8404 15.8346 45.8654 15.7364 45.8654Z" fill="#00327F"/>
<path d="M17.2856 48.5384C17.0857 48.5384 16.8913 48.4347 16.7844 48.2495C16.6247 47.9732 16.7195 47.6203 16.996 47.4607L34.7987 37.2027C35.0751 37.0431 35.4286 37.1377 35.5885 37.414C35.7482 37.6902 35.6534 38.043 35.3769 38.2026L17.5742 48.4608C17.483 48.5135 17.3835 48.5384 17.2856 48.5384Z" fill="#00327F"/>
<path d="M17.4621 35.3087C17.2628 35.3087 17.0687 35.2057 16.9615 35.021L15.3683 32.2796C15.208 32.0038 15.3019 31.6506 15.5782 31.4905C15.8544 31.3309 16.2082 31.4243 16.3685 31.7L17.9617 34.4414C18.122 34.7172 18.0281 35.0705 17.7518 35.2306C17.6604 35.2836 17.5606 35.3087 17.4621 35.3087Z" fill="#00327F"/>
<path d="M19.4873 34.1412C19.2874 34.1412 19.093 34.0376 18.9861 33.8524L17.3926 31.0963C17.233 30.8202 17.3278 30.4671 17.6043 30.3077C17.8808 30.1479 18.2345 30.2429 18.3941 30.519L19.9876 33.2752C20.1472 33.5513 20.0524 33.9044 19.7759 34.0638C19.6847 34.1163 19.5851 34.1412 19.4873 34.1412Z" fill="#00327F"/>
<path d="M21.517 32.9736C21.3169 32.9736 21.1223 32.8699 21.0154 32.6846L19.4269 29.931C19.2675 29.6548 19.3626 29.3018 19.6393 29.1426C19.9163 28.9836 20.2696 29.0786 20.4289 29.3547L22.0174 32.1082C22.1767 32.3845 22.0817 32.7374 21.8051 32.8966C21.714 32.9487 21.6148 32.9736 21.517 32.9736Z" fill="#00327F"/>
<path d="M23.5514 31.806C23.3517 31.806 23.1575 31.7025 23.0502 31.5175L21.4571 28.7639C21.2975 28.4879 21.3921 28.1347 21.6686 27.9754C21.9453 27.8156 22.2986 27.9103 22.4586 28.1865L24.0517 30.94C24.2113 31.2161 24.1167 31.5692 23.8402 31.7286C23.749 31.7811 23.6496 31.806 23.5514 31.806Z" fill="#00327F"/>
<path d="M25.5765 30.6386C25.3767 30.6386 25.1825 30.5351 25.0753 30.3501L23.4818 27.5964C23.3222 27.3203 23.4166 26.9672 23.6933 26.8076C23.9694 26.6482 24.3233 26.7425 24.4831 27.0188L26.0766 29.7725C26.2362 30.0484 26.1418 30.4016 25.8651 30.561C25.7742 30.6135 25.6746 30.6386 25.5765 30.6386Z" fill="#00327F"/>
<path d="M27.6015 29.4732C27.4016 29.4732 27.2074 29.3697 27.1001 29.1843L25.5068 26.4281C25.3472 26.152 25.4419 25.7989 25.7186 25.6395C25.995 25.4802 26.3486 25.5748 26.5084 25.8509L28.1017 28.6071C28.2614 28.8832 28.1666 29.2363 27.8901 29.3957C27.7989 29.4481 27.6995 29.4732 27.6015 29.4732Z" fill="#00327F"/>
<path d="M29.6265 28.3059C29.4266 28.3059 29.2324 28.2024 29.1253 28.0172L27.5318 25.261C27.3722 24.9849 27.4669 24.6318 27.7434 24.4724C28.0201 24.3129 28.3736 24.4075 28.5332 24.6838L30.1267 27.44C30.2864 27.716 30.1918 28.0691 29.9151 28.2285C29.8239 28.2808 29.7245 28.3059 29.6265 28.3059Z" fill="#00327F"/>
<path d="M31.6561 27.1385C31.456 27.1385 31.2617 27.0348 31.1546 26.8492L29.5659 24.0955C29.4066 23.8193 29.5016 23.4663 29.7785 23.3071C30.0551 23.1479 30.4086 23.2431 30.5681 23.5192L32.1566 26.2729C32.3159 26.5491 32.2209 26.9021 31.9442 27.0613C31.8534 27.1136 31.7541 27.1385 31.6561 27.1385Z" fill="#00327F"/>
<path d="M33.6859 25.9586C33.4866 25.9586 33.2925 25.8556 33.1853 25.6709L31.5918 22.9295C31.4314 22.6537 31.5253 22.3005 31.8017 22.1404C32.0778 21.9804 32.4315 22.0744 32.592 22.3499L34.1853 25.0913C34.3457 25.3671 34.2518 25.7204 33.9756 25.8805C33.8842 25.9335 33.7845 25.9586 33.6859 25.9586Z" fill="#00327F"/>
<path d="M35.7157 24.7912C35.5164 24.7912 35.3225 24.6882 35.2151 24.5035L33.6216 21.7621C33.4614 21.4864 33.5553 21.1331 33.8315 20.973C34.1078 20.8132 34.4615 20.9068 34.6218 21.1825L36.2153 23.9239C36.3755 24.1997 36.2816 24.553 36.0054 24.7131C35.914 24.7661 35.8141 24.7912 35.7157 24.7912Z" fill="#00327F"/>
<path d="M37.7404 23.6235C37.5407 23.6235 37.3463 23.52 37.2393 23.335L35.6461 20.5815C35.4865 20.3054 35.5811 19.9523 35.8576 19.7929C36.1338 19.6335 36.4878 19.7276 36.6476 20.0038L38.2407 22.7574C38.4004 23.0335 38.3058 23.3866 38.0291 23.546C37.938 23.5986 37.8388 23.6235 37.7404 23.6235Z" fill="#00327F"/>
<path d="M51.8113 70.3694C51.4225 70.3694 51.0341 70.3182 50.6564 70.217L8.02102 58.806C5.63095 58.1647 4.20724 55.6987 4.84685 53.3094L8.2154 40.7429C8.27598 40.5173 8.46643 40.3505 8.69823 40.3199C8.92966 40.2882 9.15753 40.4012 9.27441 40.6033L15.9816 52.1905C16.5775 53.221 17.6905 53.8611 18.886 53.8611H18.8862C19.4659 53.8611 20.0382 53.7083 20.5413 53.4187L54.9887 33.5657C55.1212 33.4893 55.2791 33.4685 55.4268 33.5078L60.1677 34.771C62.559 35.4084 63.9856 37.8741 63.3479 40.2674L56.1547 67.041C55.627 69.0008 53.8411 70.3692 51.8113 70.3694ZM8.97153 42.3871L5.96394 53.6074C5.48878 55.3825 6.54618 57.2143 8.32087 57.6906L50.9563 69.1016C51.2365 69.1769 51.5243 69.2148 51.8115 69.2148C53.3191 69.2146 54.646 68.1974 55.0382 66.7412L62.2309 39.9689C62.7044 38.1916 61.6454 36.3594 59.8695 35.8862L55.3596 34.6846L21.1191 54.4186C20.4403 54.809 19.6683 55.0152 18.8864 55.0152H18.886C17.2788 55.015 15.7822 54.1541 14.9805 52.7678L8.97153 42.3871Z" fill="#00327F"/>
<path d="M60.6662 48.5923C60.6167 48.5923 60.5663 48.5858 60.5162 48.5723L40.3063 43.158C40.0804 43.0975 39.9133 42.907 39.8828 42.6755C39.8524 42.4439 39.9646 42.2171 40.1674 42.1004L47.3552 37.9613C47.488 37.8848 47.6456 37.8638 47.7935 37.9037L62.3401 41.7857C62.4883 41.8254 62.6148 41.9222 62.6914 42.0549C62.7682 42.1876 62.789 42.3454 62.7491 42.4932L61.2242 48.1646C61.1551 48.4224 60.9214 48.5923 60.6662 48.5923ZM41.9544 42.4042L60.2573 47.3075L61.4822 42.752L47.726 39.0806L41.9544 42.4042Z" fill="#00327F"/>
</svg>
