<svg width="127" height="50" viewBox="0 0 127 50" fill="none" xmlns="http://www.w3.org/2000/svg">
<rect width="127" height="50" fill="white"/>
<path d="M26.5796 47.4502C14.8587 47.4502 4.67633 37.0815 4.67633 25.146C4.67633 13.272 14.8587 2.90332 26.5796 2.90332C38.2403 2.90332 48.4226 13.272 48.4226 25.146C48.4377 37.0815 38.2554 47.4502 26.5796 47.4502ZM26.5796 16.6668C22.1296 16.6668 18.1924 20.6299 18.1924 25.1614C18.1924 29.6929 22.1296 33.7021 26.5796 33.7021C30.9844 33.7021 34.9216 29.6929 34.9216 25.1614C34.9216 20.6299 30.9844 16.6668 26.5796 16.6668Z" fill="#00327F"/>
<path d="M70.2203 16.6668V46.6822H56.7193V16.6668H49.0411V3.68677H77.9438V16.6668H70.2203Z" fill="#00327F"/>
<path d="M100.466 47.4502C88.7446 47.4502 78.5623 37.0815 78.5623 25.146C78.5623 13.272 88.7446 2.90332 100.466 2.90332C112.126 2.90332 122.309 13.272 122.309 25.146C122.309 37.0815 112.126 47.4502 100.466 47.4502ZM100.466 16.6668C96.0156 16.6668 92.0784 20.6299 92.0784 25.1614C92.0784 29.6929 96.0156 33.7021 100.466 33.7021C104.87 33.7021 108.808 29.6929 108.808 25.1614C108.808 20.6299 104.87 16.6668 100.466 16.6668Z" fill="#00327F"/>
</svg>
