<svg width="96" height="38" viewBox="0 0 96 38" fill="none" xmlns="http://www.w3.org/2000/svg">
<path d="M19.9347 35.5876C11.144 35.5876 3.50725 27.8111 3.50725 18.8595C3.50725 9.95399 11.144 2.17749 19.9347 2.17749C28.6802 2.17749 36.317 9.95399 36.317 18.8595C36.3283 27.8111 28.6915 35.5876 19.9347 35.5876ZM19.9347 12.5001C16.5972 12.5001 13.6443 15.4724 13.6443 18.871C13.6443 22.2697 16.5972 25.2766 19.9347 25.2766C23.2383 25.2766 26.1912 22.2697 26.1912 18.871C26.1912 15.4724 23.2383 12.5001 19.9347 12.5001Z" fill="white"/>
<path d="M52.6653 12.5002V35.0117H42.5395V12.5002H36.7808V2.76514H58.4579V12.5002H52.6653Z" fill="white"/>
<path d="M75.3492 35.5876C66.5585 35.5876 58.9217 27.8111 58.9217 18.8595C58.9217 9.95399 66.5585 2.17749 75.3492 2.17749C84.0947 2.17749 91.7314 9.95399 91.7314 18.8595C91.7314 27.8111 84.0947 35.5876 75.3492 35.5876ZM75.3492 12.5001C72.0117 12.5001 69.0588 15.4724 69.0588 18.871C69.0588 22.2697 72.0117 25.2766 75.3492 25.2766C78.6528 25.2766 81.6057 22.2697 81.6057 18.871C81.6057 15.4724 78.6528 12.5001 75.3492 12.5001Z" fill="white"/>
</svg>
