<svg width="75" height="68" viewBox="0 0 75 68" fill="none" xmlns="http://www.w3.org/2000/svg">
<path d="M63.0694 35.236H60.2972C59.9612 35.236 59.6888 34.9636 59.6888 34.6276V27.8073C59.6888 27.4713 59.9612 27.1989 60.2972 27.1989H63.0694C63.4054 27.1989 63.6778 27.4713 63.6778 27.8073V34.6276C63.6778 34.9636 63.4054 35.236 63.0694 35.236ZM60.9056 34.019H62.4609V28.4155H60.9056V34.019Z" fill="#00327F"/>
<path d="M57.2799 35.236H54.5076C54.1716 35.236 53.8993 34.9636 53.8993 34.6276V27.8073C53.8993 27.4713 54.1716 27.1989 54.5076 27.1989H57.2799C57.6159 27.1989 57.8884 27.4713 57.8884 27.8073V34.6276C57.8884 34.9636 57.6159 35.236 57.2799 35.236ZM55.1162 34.019H56.6715V28.4155H55.1162V34.019Z" fill="#00327F"/>
<path d="M63.0694 44.1015H60.2972C59.9612 44.1015 59.6888 43.8291 59.6888 43.4931V36.6741C59.6888 36.3381 59.9612 36.0657 60.2972 36.0657H63.0694C63.4054 36.0657 63.6778 36.3381 63.6778 36.6741V43.4931C63.6778 43.8291 63.4054 44.1015 63.0694 44.1015ZM60.9056 42.8847H62.4609V37.2825H60.9056V42.8847Z" fill="#3076BD"/>
<path d="M57.2799 44.1015H54.5076C54.1716 44.1015 53.8993 43.8291 53.8993 43.4931V36.6741C53.8993 36.3381 54.1716 36.0657 54.5076 36.0657H57.2799C57.6159 36.0657 57.8884 36.3381 57.8884 36.6741V43.4931C57.8884 43.8291 57.6159 44.1015 57.2799 44.1015ZM55.1162 42.8847H56.6715V37.2825H55.1162V42.8847Z" fill="#00327F"/>
<path d="M63.0694 52.9694H60.2972C59.9612 52.9694 59.6888 52.697 59.6888 52.361V45.5523C59.6888 45.2163 59.9612 44.9438 60.2972 44.9438H63.0694C63.4054 44.9438 63.6778 45.2163 63.6778 45.5523V52.361C63.6778 52.697 63.4054 52.9694 63.0694 52.9694ZM60.9056 51.7525H62.4609V46.1609H60.9056V51.7525Z" fill="#00327F"/>
<path d="M57.2799 52.9694H54.5076C54.1716 52.9694 53.8993 52.697 53.8993 52.361V45.5523C53.8993 45.2163 54.1716 44.9438 54.5076 44.9438H57.2799C57.6159 44.9438 57.8884 45.2163 57.8884 45.5523V52.361C57.8884 52.697 57.6159 52.9694 57.2799 52.9694ZM55.1162 51.7525H56.6715V46.1609H55.1162V51.7525Z" fill="#00327F"/>
<path d="M63.0694 61.8352H60.2972C59.9612 61.8352 59.6888 61.5627 59.6888 61.2267V54.419C59.6888 54.083 59.9612 53.8105 60.2972 53.8105H63.0694C63.4054 53.8105 63.6778 54.083 63.6778 54.419V61.2267C63.6778 61.5627 63.4054 61.8352 63.0694 61.8352ZM60.9056 60.6183H62.4609V55.0276H60.9056V60.6183Z" fill="#00327F"/>
<path d="M57.2799 61.8352H54.5076C54.1716 61.8352 53.8993 61.5627 53.8993 61.2267V54.419C53.8993 54.083 54.1716 53.8105 54.5076 53.8105H57.2799C57.6159 53.8105 57.8884 54.083 57.8884 54.419V61.2267C57.8884 61.5627 57.6159 61.8352 57.2799 61.8352ZM55.1162 60.6183H56.6715V55.0276H55.1162V60.6183Z" fill="#3076BD"/>
<rect x="10" y="11" width="30" height="53" fill="#3076BD" fill-opacity="0.28"/>
<path d="M39.5275 64.9938H10.1033C9.76728 64.9938 9.49484 64.7213 9.49484 64.3853V11.8047C9.49484 11.4687 9.76728 11.1963 10.1033 11.1963H39.5275C39.8637 11.1963 40.1359 11.4687 40.1359 11.8047V64.3852C40.1361 64.7213 39.8637 64.9938 39.5275 64.9938ZM10.7117 63.7767H38.919V12.4132H10.7117V63.7767Z" fill="#3076BD"/>
<path d="M66.4747 64.9938H51.7648C51.4288 64.9938 51.1564 64.7213 51.1564 64.3853V15.782C51.1564 15.5588 51.2784 15.3537 51.4746 15.2472C51.6705 15.1409 51.909 15.1503 52.0963 15.2718L66.8062 24.8294C66.9789 24.9417 67.0832 25.1337 67.0832 25.3396V64.3853C67.0832 64.7213 66.8107 64.9938 66.4747 64.9938ZM52.3732 63.7767H65.8663V25.6698L52.3732 16.903V63.7767Z" fill="#00327F"/>
<path d="M47.2373 64.9937H39.5276C39.1916 64.9937 38.9192 64.7213 38.9192 64.3853V12.4131H23.3704C23.0344 12.4131 22.762 12.1407 22.762 11.8047V5.78104C22.762 5.44504 23.0344 5.17261 23.3704 5.17261H47.2373C47.5733 5.17261 47.8457 5.44504 47.8457 5.78104V64.3853C47.8457 64.7213 47.5733 64.9937 47.2373 64.9937ZM40.1361 63.7767H46.6288V6.38948H23.9788V11.1962H39.5276C39.8638 11.1962 40.1361 11.4687 40.1361 11.8047V63.7767Z" fill="#00327F"/>
<path d="M14.0867 64.9937C13.7507 64.9937 13.4783 64.7212 13.4783 64.3853V19.8761C13.4783 19.5401 13.7507 19.2677 14.0867 19.2677C14.4227 19.2677 14.6951 19.5401 14.6951 19.8761V64.3851C14.6953 64.7213 14.4227 64.9937 14.0867 64.9937Z" fill="#3076BD"/>
<path d="M18.4204 64.9937C18.0844 64.9937 17.812 64.7212 17.812 64.3853V19.8761C17.812 19.5401 18.0844 19.2677 18.4204 19.2677C18.7564 19.2677 19.0288 19.5401 19.0288 19.8761V64.3851C19.0288 64.7213 18.7564 64.9937 18.4204 64.9937Z" fill="#3076BD"/>
<path d="M22.7543 64.9937C22.4183 64.9937 22.1458 64.7212 22.1458 64.3853V19.8761C22.1458 19.5401 22.4183 19.2677 22.7543 19.2677C23.0903 19.2677 23.3627 19.5401 23.3627 19.8761V64.3851C23.3627 64.7213 23.0903 64.9937 22.7543 64.9937Z" fill="#3076BD"/>
<path d="M27.0837 64.9937C26.7477 64.9937 26.4752 64.7212 26.4752 64.3853V19.8761C26.4752 19.5401 26.7477 19.2677 27.0837 19.2677C27.4197 19.2677 27.6921 19.5401 27.6921 19.8761V64.3851C27.6921 64.7213 27.4197 64.9937 27.0837 64.9937Z" fill="#3076BD"/>
<path d="M31.4173 64.9937C31.0813 64.9937 30.8089 64.7212 30.8089 64.3853V19.8761C30.8089 19.5401 31.0813 19.2677 31.4173 19.2677C31.7533 19.2677 32.0258 19.5401 32.0258 19.8761V64.3851C32.0258 64.7213 31.7533 64.9937 31.4173 64.9937Z" fill="#3076BD"/>
<path d="M35.751 64.9937C35.415 64.9937 35.1426 64.7212 35.1426 64.3853V19.8761C35.1426 19.5401 35.415 19.2677 35.751 19.2677C36.087 19.2677 36.3595 19.5401 36.3595 19.8761V64.3851C36.3595 64.7213 36.087 64.9937 35.751 64.9937Z" fill="#3076BD"/>
<path d="M43.0553 6.38948H28.164C27.828 6.38948 27.5556 6.11704 27.5556 5.78104V2.97379C27.5556 2.63779 27.828 2.36536 28.164 2.36536H43.0553C43.3913 2.36536 43.6637 2.63779 43.6637 2.97379V5.78104C43.6637 6.11704 43.3913 6.38948 43.0553 6.38948ZM28.7724 5.17261H42.4468V3.58242H28.7724V5.17261Z" fill="#00327F"/>
<path d="M39.418 3.58225H31.8096C31.4736 3.58225 31.2011 3.30981 31.2011 2.97381V0.608316C31.2011 0.272316 31.4736 -0.00012207 31.8096 -0.00012207H39.418C39.754 -0.00012207 40.0264 0.272316 40.0264 0.608316V2.97381C40.0264 3.31 39.754 3.58225 39.418 3.58225ZM32.418 2.36538H38.8093V1.21675H32.418V2.36538Z" fill="#00327F"/>
<path d="M51.7648 64.9937H47.2373C46.9013 64.9937 46.6288 64.7212 46.6288 64.3852V39.4232C46.6288 39.1729 46.7822 38.9479 47.0157 38.8568C47.2491 38.7658 47.5142 38.8266 47.6843 39.0105L52.2118 43.9118C52.3157 44.0241 52.3733 44.1716 52.3733 44.3246V64.3852C52.3733 64.7212 52.1008 64.9937 51.7648 64.9937ZM47.8457 63.7766H51.1564V44.5626L47.8457 40.9787V63.7766Z" fill="#00327F"/>
<path d="M58.6005 64.9937H3.20383C2.86783 64.9937 2.5954 64.7213 2.5954 64.3853C2.5954 64.0493 2.86783 63.7769 3.20383 63.7769H58.6005C58.9365 63.7769 59.209 64.0493 59.209 64.3853C59.209 64.7213 58.9365 64.9937 58.6005 64.9937Z" fill="#00327F"/>
<path d="M73.9776 67.2164H35.6455C35.3095 67.2164 35.037 66.9439 35.037 66.6079C35.037 66.2719 35.3095 65.9995 35.6455 65.9995H73.9776C74.3136 65.9995 74.586 66.2719 74.586 66.6079C74.586 66.9439 74.3136 67.2164 73.9776 67.2164Z" fill="#00327F"/>
<path d="M19.1884 67.1459H1.02244C0.686439 67.1459 0.414001 66.8735 0.414001 66.5375C0.414001 66.2015 0.686439 65.9291 1.02244 65.9291H19.1884C19.5244 65.9291 19.7968 66.2015 19.7968 66.5375C19.7968 66.8735 19.5244 67.1459 19.1884 67.1459Z" fill="#00327F"/>
</svg>
