<svg width="32" height="32" viewBox="0 0 32 32" fill="none" xmlns="http://www.w3.org/2000/svg">
<g clip-path="url(#clip0_1_2402)">
<path d="M15.5362 31.0725C24.1167 31.0725 31.0725 24.1167 31.0725 15.5362C31.0725 6.95581 24.1167 0 15.5362 0C6.95581 0 0 6.95581 0 15.5362C0 24.1167 6.95581 31.0725 15.5362 31.0725Z" fill="white"/>
<path fill-rule="evenodd" clip-rule="evenodd" d="M7.03257 15.3722C11.5617 13.3989 14.5818 12.098 16.093 11.4695C20.4075 9.67492 21.3041 9.36319 21.8884 9.35289C22.0169 9.35063 22.3043 9.38248 22.4904 9.53352C22.6476 9.66106 22.6909 9.83334 22.7116 9.95426C22.7322 10.0752 22.758 10.3506 22.7375 10.5659C22.5037 13.0225 21.492 18.9842 20.9773 21.7356C20.7596 22.8999 20.3307 23.2903 19.9156 23.3285C19.0134 23.4115 18.3283 22.7322 17.4544 22.1594C16.087 21.2631 15.3145 20.7051 13.9873 19.8304C12.4533 18.8196 13.4477 18.264 14.3219 17.3561C14.5507 17.1185 18.5259 13.5027 18.6028 13.1747C18.6124 13.1337 18.6214 12.9808 18.5305 12.9C18.4397 12.8193 18.3056 12.8469 18.2088 12.8689C18.0717 12.9 15.8873 14.3438 11.6556 17.2003C11.0355 17.6261 10.4739 17.8335 9.97072 17.8227C9.416 17.8107 8.34893 17.509 7.55568 17.2512C6.58272 16.9349 5.80943 16.7677 5.87677 16.2306C5.91184 15.9508 6.29711 15.6647 7.03257 15.3722Z" fill="#00327F"/>
</g>
<defs>
<clipPath id="clip0_1_2402">
<rect width="31.0725" height="31.0725" fill="white"/>
</clipPath>
</defs>
</svg>
