<svg width="32" height="32" viewBox="0 0 32 32" fill="none" xmlns="http://www.w3.org/2000/svg">
<path d="M15.6081 0C7.02831 0 0.0724487 6.95554 0.0724487 15.5357C0.0724487 24.1159 7.02831 31.0714 15.6081 31.0714C24.188 31.0714 31.1438 24.1159 31.1438 15.5357C31.1438 6.95554 24.188 0 15.6081 0ZM23.4887 17.2159C24.2128 17.9232 24.9788 18.5888 25.6289 19.3692C25.9169 19.7144 26.1883 20.0713 26.3949 20.4728C26.6899 21.0453 26.4235 21.6731 25.9111 21.7071L22.7283 21.7064C21.9063 21.7745 21.2522 21.4429 20.7007 20.8809C20.2604 20.4331 19.852 19.9547 19.4279 19.4915C19.2547 19.3015 19.0723 19.1225 18.8548 18.9817C18.4209 18.6994 18.044 18.7859 17.7954 19.2392C17.542 19.7004 17.4842 20.2115 17.46 20.7249C17.4254 21.4753 17.1991 21.6715 16.446 21.7067C14.837 21.7821 13.3103 21.538 11.8913 20.7268C10.6396 20.0113 9.67073 19.0014 8.82648 17.858C7.18248 15.6292 5.92341 13.1829 4.79212 10.6663C4.53751 10.0996 4.72378 9.79631 5.34902 9.78455C6.38781 9.76452 7.4266 9.76707 8.46538 9.7836C8.88814 9.79027 9.16787 10.0322 9.33029 10.4311C9.89165 11.8122 10.5798 13.1263 11.4422 14.345C11.672 14.6695 11.9066 14.9931 12.2407 15.2223C12.6094 15.4753 12.8904 15.3917 13.0643 14.9801C13.1755 14.7185 13.2235 14.4387 13.2477 14.1584C13.3303 13.1981 13.3402 12.2382 13.1971 11.2817C13.1081 10.6832 12.7715 10.2966 12.1749 10.1835C11.871 10.1259 11.9155 10.0134 12.0633 9.83986C12.3198 9.53979 12.5601 9.35416 13.0404 9.35416L16.6364 9.35352C17.2032 9.46478 17.3303 9.71907 17.4073 10.29L17.4104 14.2862C17.4038 14.5071 17.5214 15.1619 17.9181 15.3065C18.2359 15.4114 18.4457 15.1565 18.6358 14.9553C19.4982 14.0401 20.1126 12.96 20.6629 11.8421C20.9057 11.3491 21.1152 10.8389 21.3186 10.3278C21.4699 9.94984 21.7051 9.76389 22.1317 9.77025L25.5945 9.77438C25.6966 9.77438 25.8002 9.77533 25.9013 9.79282C26.4849 9.89262 26.6448 10.1437 26.4642 10.713C26.1801 11.6075 25.6279 12.3526 25.0882 13.0996C24.5097 13.8993 23.8927 14.6711 23.3199 15.4744C22.7935 16.2086 22.8351 16.5783 23.4887 17.2159Z" fill="white"/>
</svg>
