<svg width="32" height="32" viewBox="0 0 32 32" fill="none" xmlns="http://www.w3.org/2000/svg">
<path d="M15.608 0C7.02813 0 0.0722656 6.95554 0.0722656 15.5357C0.0722656 24.1159 7.02813 31.0714 15.608 31.0714C24.1878 31.0714 31.1437 24.1159 31.1437 15.5357C31.1437 6.95554 24.1878 0 15.608 0ZM23.4885 17.2159C24.2126 17.9232 24.9787 18.5888 25.6287 19.3692C25.9167 19.7144 26.1881 20.0713 26.3947 20.4728C26.6897 21.0453 26.4234 21.6731 25.911 21.7071L22.7282 21.7064C21.9062 21.7745 21.252 21.4429 20.7005 20.8809C20.2603 20.4331 19.8518 19.9547 19.4278 19.4915C19.2545 19.3015 19.0721 19.1225 18.8546 18.9817C18.4208 18.6994 18.0438 18.7859 17.7952 19.2392C17.5419 19.7004 17.484 20.2115 17.4599 20.7249C17.4252 21.4753 17.1989 21.6715 16.4459 21.7067C14.8368 21.7821 13.3101 21.538 11.8912 20.7268C10.6394 20.0113 9.67055 19.0014 8.82629 17.858C7.18229 15.6292 5.92322 13.1829 4.79194 10.6663C4.53733 10.0996 4.7236 9.79631 5.34884 9.78455C6.38763 9.76452 7.42641 9.76707 8.4652 9.7836C8.88796 9.79027 9.16768 10.0322 9.33011 10.4311C9.89146 11.8122 10.5796 13.1263 11.442 14.345C11.6718 14.6695 11.9064 14.9931 12.2405 15.2223C12.6092 15.4753 12.8902 15.3917 13.0641 14.9801C13.1753 14.7185 13.2233 14.4387 13.2475 14.1584C13.3301 13.1981 13.34 12.2382 13.197 11.2817C13.1079 10.6832 12.7713 10.2966 12.1747 10.1835C11.8708 10.1259 11.9153 10.0134 12.0631 9.83986C12.3196 9.53979 12.5599 9.35416 13.0402 9.35416L16.6363 9.35352C17.203 9.46478 17.3302 9.71907 17.4071 10.29L17.4103 14.2862C17.4036 14.5071 17.5212 15.1619 17.9179 15.3065C18.2358 15.4114 18.4456 15.1565 18.6356 14.9553C19.498 14.0401 20.1124 12.96 20.6627 11.8421C20.9055 11.3491 21.115 10.8389 21.3184 10.3278C21.4697 9.94984 21.705 9.76389 22.1315 9.77025L25.5944 9.77438C25.6964 9.77438 25.8 9.77533 25.9011 9.79282C26.4847 9.89262 26.6446 10.1437 26.464 10.713C26.1799 11.6075 25.6277 12.3526 25.088 13.0996C24.5095 13.8993 23.8925 14.6711 23.3197 15.4744C22.7933 16.2086 22.835 16.5783 23.4885 17.2159Z" fill="white"/>
</svg>
